<svg width="1459" height="350" viewBox="0 0 1459 350" fill="none" xmlns="http://www.w3.org/2000/svg">
<path fill-rule="evenodd" clip-rule="evenodd" d="M839.366 3.98401C831.045 9.09677 827.927 12.348 828.907 14.8881C829.463 16.3261 828.981 16.5126 826.25 15.9149C823.725 15.361 822.423 15.7262 820.893 17.4158C818.925 19.5874 818.973 19.7099 822.657 21.959C824.74 23.2307 831.262 26.1079 837.15 28.3525C862.387 37.9747 865.992 39.5127 872.152 43.2998C885.814 51.6986 890.737 58.874 890.666 70.2881C890.587 82.9762 878.389 98.6448 855.286 115.735C840.396 126.75 837.305 129.674 837.309 132.742C837.312 134.377 838.354 135.623 840.412 136.451C842.118 137.137 856.392 138.992 872.133 140.571C903.718 143.743 920.294 145.866 933.07 148.376C937.717 149.289 950.138 151.327 960.672 152.906C1015.32 161.09 1085.91 178.104 1160.47 201.065C1175.86 205.804 1176.85 206.494 1175.99 211.807C1173.53 226.967 1172.7 238.39 1172.88 254.561C1173.31 292.757 1176.54 306.196 1192.76 337.134C1194.37 340.223 1198.77 346.254 1202.52 350.534C1206.27 354.814 1209.34 358.986 1209.34 359.802C1209.34 361.645 1209.92 361.718 1202.61 358.951C1198.94 357.56 1193.87 356.626 1190.08 356.644C1183.08 356.678 1182.33 356.149 1176.11 346.885C1170.57 338.632 1162.47 336.343 1157.5 341.627C1156.05 343.172 1154.27 344.436 1153.54 344.436C1152.82 344.436 1151.29 345.462 1150.16 346.715C1149.02 347.969 1144.7 351.227 1140.55 353.956C1136.4 356.685 1131.91 360.317 1130.56 362.029C1128.41 364.765 1128.33 365.217 1129.94 365.779C1134.18 367.261 1141.63 376.21 1144.11 382.789C1146.4 388.882 1146.58 390.809 1145.97 402.656C1145.34 414.955 1145.12 415.931 1142.39 418.302C1140.26 420.151 1138.06 420.83 1134.19 420.83C1108.67 420.829 1078.89 403.312 1052.99 373.084C1043.06 361.484 1025.16 333.884 1026.33 331.978C1026.7 331.392 1029.49 329.649 1032.54 328.106C1035.59 326.562 1038.09 324.581 1038.08 323.705C1038.08 322.828 1034.59 319.774 1030.32 316.92C1015.9 307.278 1008.91 299.907 1006.99 292.289C1006.11 288.842 1005.53 288.893 1020.89 291.069C1035.22 293.102 1041.59 294.714 1065.08 302.249C1099.46 313.275 1121.45 322.751 1138.24 333.771L1145.97 338.85L1153.14 334.968C1157.08 332.833 1162.45 330.021 1165.08 328.721C1167.72 327.42 1169.87 325.873 1169.87 325.285C1169.86 324.696 1170.9 324.214 1172.16 324.214C1175.61 324.214 1181.06 319.787 1180.3 317.611C1179.94 316.608 1174.26 310.227 1167.66 303.43C1155.64 291.043 1137.29 270.814 1117.5 248.146C1091.39 218.243 1050.47 182.659 1032.27 174.032C1016.91 166.757 1008.01 167.669 990.341 178.328C985.2 181.43 978.967 184.992 976.491 186.245C963.691 192.716 960.256 200.526 959.182 225.604C958.765 235.321 958.151 243.546 957.814 243.88C957.097 244.597 948.292 234.041 932.055 212.994C908.085 181.925 887.25 159.67 877.02 154.21C873.687 152.43 868.473 150.769 865.148 150.427C858.68 149.761 852.449 151.782 834.536 160.357C829.584 162.727 824.942 164.671 824.22 164.676C823.498 164.682 820.89 166.976 818.426 169.774C814.452 174.284 813.726 176.037 812.033 185.221C810.982 190.918 809.789 202.658 809.381 211.309L808.64 227.037L807.755 218.611C807.269 213.977 807.019 202.602 807.2 193.334L807.529 176.482L804.713 176.639C796.429 177.101 787.84 179.919 772.645 187.16C742.14 201.7 733.219 210.616 723.753 236.024C719.146 248.391 718.396 247.615 711.818 223.666C706.491 204.274 682.969 134.989 681.071 133.098C679.556 131.59 671.742 133.31 671.745 135.151C671.747 136.357 670.912 136.596 668.522 136.072C666.615 135.654 663.738 136.049 661.484 137.036C659.387 137.955 654.631 139.369 650.916 140.181C644.544 141.571 644.141 141.856 643.823 145.166C643.638 147.098 644.583 151.647 645.923 155.277C647.265 158.907 648.488 164.911 648.643 168.618C648.814 172.7 650.573 180.361 653.104 188.04C655.402 195.015 656.985 201.204 656.62 201.793C656.256 202.383 651.55 202.831 646.163 202.789C631.4 202.672 574.859 207.063 564.013 209.169C558.817 210.177 559.294 208.372 566.374 200.247C578.538 186.287 587.55 174.242 590.815 167.582C592.655 163.827 595.134 159.221 596.322 157.348C597.511 155.474 599.315 150.688 600.329 146.711C602.808 137.003 602.028 114.939 598.924 106.989C596.223 100.068 590.62 93.5073 585.842 91.6694C583.803 90.8852 577.532 88.0463 571.907 85.3613C566.281 82.6763 559.097 79.8856 555.94 79.1588C550.953 78.0118 549.955 78.0814 548.34 79.6947C546.254 81.7786 544.39 82.1247 544.388 80.4283C544.385 78.5252 541.468 79.1801 538.134 81.8326C534.695 84.5681 528.637 88.0676 520.968 91.7469C514.478 94.8599 514.935 97.545 522.127 98.5706C528.149 99.4301 527.313 99.0211 539.686 107.141C554.367 116.775 556.615 120.973 557.67 140.729C558.698 159.968 555.498 172.051 544.609 190.036C537.984 200.983 526.378 216.212 524.084 216.973C520.987 218 517.973 215.653 515.957 210.647C514.924 208.084 512.912 204.405 511.484 202.469C510.056 200.534 507.735 196.676 506.327 193.895C503.13 187.584 485.602 161.494 476.514 149.52C469.406 140.152 453.388 120.391 439.636 104.02C432.469 95.4891 427.899 89.1776 422.553 80.4283C419.579 75.5604 416.223 65.463 415.386 58.8639C414.7 53.4557 414.976 51.6941 417.226 47.0869C420.797 39.7745 429.546 31.1701 438.486 26.182C447.138 21.3535 450.817 19.9862 471.002 14.0983C479.32 11.6728 486.641 9.17316 487.269 8.54628C489.021 6.79597 474.375 7.12289 465.598 9.02936C461.484 9.92362 453.558 11.5234 447.984 12.5862C414.562 18.9572 383.49 36.1469 376.122 52.3423C374.367 56.1991 373.813 59.7952 373.784 67.5087C373.749 77.2928 373.919 77.9736 379.043 88.5732C381.954 94.5982 384.069 99.5267 383.743 99.5267C383.415 99.5267 373.428 93.559 361.549 86.2656C316.269 58.4651 300.518 51.0347 276.697 46.2331C268.492 44.5794 266.73 44.558 259.655 46.0298C255.315 46.933 247.526 49.7674 242.345 52.33C237.165 54.8914 230.258 58.0033 226.998 59.2459C218.85 62.351 215.208 65.7348 211.773 73.3967C207.849 82.1483 207.103 92.931 208.683 118.063C211.422 161.655 221.903 202.396 243.362 252.876C246.251 259.673 249.581 267.619 250.763 270.535C256.412 284.481 272.01 313.535 279.762 324.549C297.823 350.21 310.773 364.419 320.002 368.702C327.953 372.393 332.982 372.142 342.534 367.576C356.63 360.84 368.116 355.67 368.989 355.67C370.709 355.67 374.815 350.298 375.935 346.582C378.039 339.596 377.005 323.292 372.917 298.991C370.729 285.986 368.231 273.07 367.367 270.289C364.958 262.527 364.579 260.232 365.609 259.597C366.859 258.826 382.397 269.388 412.739 291.634C443.05 313.859 444.288 314.961 441.128 316.912C439.4 317.977 439.798 321.967 441.632 321.967C442.525 321.967 443.567 321.462 443.949 320.844C445.217 318.793 450.347 319.681 453.935 322.572C455.88 324.139 459.817 327.299 462.681 329.593C465.546 331.886 469.037 334.699 470.438 335.843C471.84 336.985 480.948 343.81 490.679 351.009C512.167 366.904 512.332 367.031 521.935 374.934C526.174 378.422 531.835 382.411 534.516 383.797C538.888 386.057 539.214 386.494 537.672 388.033C536.153 389.552 534.096 389.58 519.839 388.279C500.623 386.527 472.816 387.377 402.384 391.869C367.595 394.087 302.432 393.757 283.296 391.264C234.018 384.844 187.493 371.739 145.995 352.59C109.396 335.7 69.051 303.775 50.9988 277.417C39.338 260.393 32.8061 236.525 35.2269 219.786C37.5407 203.785 44.1569 192.844 52.8397 190.662C58.4601 189.25 78.5418 188.94 79.865 190.244C80.3343 190.707 81.5603 191.138 82.5876 191.201C89.6773 191.636 90.0345 191.718 88.6516 192.594C87.6062 193.256 87.9811 193.855 90.0223 194.782C91.7817 195.581 93.0815 195.654 93.4995 194.976C93.8669 194.382 93.2511 193.855 92.1304 193.807C91.0096 193.758 90.6893 193.475 91.4176 193.179C93.7138 192.244 109.349 199.435 119.073 205.896C139.138 219.229 160.85 239.009 171.084 253.279C177.864 262.733 173.322 259.415 163.502 247.741C155.005 237.64 148.705 231.544 151.108 235.747C151.657 236.707 154.899 240.46 158.312 244.085C165.163 251.365 165.663 252.015 175.133 265.99C186.593 282.899 198.91 310.79 203.822 330.955C205.102 336.207 206.631 341.136 207.222 341.908C209.679 345.119 213.127 342.893 227.238 328.989L241.774 314.665L241.762 309.215C241.746 302.285 233.183 276.103 225.77 260.328C214.371 236.065 196.432 213.37 173.441 194.123C153.84 177.717 136.656 168.175 119.139 163.973C109.215 161.591 92.3369 161.621 82.1632 164.038C71.8432 166.49 55.6826 174.495 47.0848 181.413C43.3118 184.45 36.6693 189.272 32.3239 192.132C16.8368 202.318 5.24461 217.7 1.58365 232.921C0.87631 235.864 0.33619 243.579 0.383256 250.067C0.498686 265.93 3.34738 276.428 10.8515 288.645C15.2709 295.841 16.4466 298.677 15.9047 300.841C15.3282 303.147 16.4961 305.272 22.3335 312.529C43.9096 339.355 77.5664 365.349 114.529 383.732C144.668 398.722 194.045 414.755 226.722 420.161C259.189 425.533 300.015 427.119 351.751 425.016C370.826 424.239 378.629 423.609 399.05 421.193C402.147 420.825 406.075 420.522 407.778 420.516C409.482 420.512 410.875 420.11 410.874 419.623C410.873 419.138 412.267 419.131 413.971 419.608C415.731 420.103 419.988 419.883 423.826 419.1C427.548 418.34 431.368 418.131 432.333 418.636C433.297 419.138 434.659 419.195 435.36 418.763C436.062 418.33 438.444 418.06 440.654 418.164C442.864 418.267 444.924 417.944 445.233 417.442C445.542 416.943 447.314 416.772 449.17 417.064C451.315 417.401 452.544 417.11 452.542 416.266C452.541 415.25 452.915 415.246 454.132 416.253C455.225 417.157 457.953 417.311 462.861 416.746C484.904 414.208 540.402 415.564 556.731 419.039C572.813 422.462 587.095 428.735 598.234 437.27L604.802 442.303L612.048 439.897C616.216 438.513 619.781 436.577 620.443 435.339C621.307 433.727 622.82 433.187 626.486 433.187C629.442 433.187 631.926 432.526 632.766 431.515C633.53 430.595 634.584 430.106 635.109 430.429C635.633 430.752 636.969 430.525 638.077 429.923C639.186 429.322 641.486 428.536 643.189 428.178C644.893 427.821 646.285 426.945 646.284 426.233C646.279 423.254 627.055 407.697 617.178 402.677C614.938 401.539 613.468 400.608 613.909 400.608C615.15 400.608 607.822 394.402 589.459 379.904C580.225 372.613 569.06 363.168 564.648 358.916C560.237 354.664 556.325 351.182 555.958 351.18C555.59 351.179 553.814 349.888 552.012 348.313L548.734 345.449L554.603 347.716C566.644 352.367 642.019 390.753 669.342 406.149C676.163 409.992 687.449 415.939 694.423 419.366L707.105 425.595L712.715 419.717C715.811 416.475 718.991 414.095 719.811 414.408C720.626 414.72 722.183 418.146 723.269 422.022C725.466 429.862 728.898 435.434 731.529 435.434C732.481 435.434 735.511 433.918 738.262 432.064C741.013 430.21 743.691 428.694 744.213 428.694C744.735 428.694 745.425 428.007 745.747 427.168C746.068 426.329 747.842 425.341 749.688 424.973C753.208 424.271 766.643 416.106 768.132 413.764C769.403 411.766 769.19 395.088 767.744 383.321C767.052 377.691 764.715 363.225 762.55 351.177C753.655 301.662 753.808 302.971 753.718 275.345C753.644 252.461 753.911 248.414 756.055 239.956C757.386 234.704 759.213 228.658 760.115 226.52L761.754 222.633L762.471 230.452C764.478 252.338 767.118 264.287 772.941 277.855L776.911 287.106L774.575 293.869C772.818 298.956 772.25 303.344 772.283 311.58C772.335 324.348 773.475 330.055 777.672 338.581C780.782 344.895 795.149 361.318 797.504 361.25C799.211 361.201 803.862 357.295 803.86 355.912C803.859 355.315 805.252 354.531 806.955 354.169C808.659 353.807 811.793 352.354 813.923 350.94C816.052 349.525 819.597 347.355 821.8 346.115C824.14 344.8 825.95 342.84 826.154 341.399C826.578 338.392 824.392 334.013 822.919 334.922C822.331 335.284 821.849 334.82 821.848 333.89C821.846 332.96 820.119 329.265 818.009 325.679C812.379 316.111 808.49 299.802 810.546 294.386C812.681 288.764 814.056 290.904 820.325 309.609C834.42 351.661 863.66 390.536 899.687 415.123C918.132 427.71 931.94 433.187 945.222 433.187C955.298 433.187 957.331 432.494 968.971 425.086C993.317 409.591 993.163 409.709 993.159 406.722C993.156 405.151 993.976 402.275 994.982 400.33C997.506 395.448 996.587 379.46 993.379 372.47C990.652 366.527 985.875 361.287 983.185 361.287C982.124 361.287 978.726 363.097 975.634 365.308C972.543 367.519 966.598 371.629 962.428 374.438C958.255 377.249 953.51 380.781 951.883 382.289L948.921 385.029L951.8 388.044C953.383 389.701 955.731 393.729 957.019 396.993C959.066 402.183 959.143 403.01 957.633 403.587C952.512 405.549 925.798 386.479 906.364 366.988C895.284 355.877 882.294 338.405 872.308 321.185C865.287 309.08 863.913 305.116 866.74 305.116C873.692 305.116 973.032 333.723 977.022 336.874C977.808 337.495 980.524 342.358 983.057 347.679C985.589 353.001 988.784 358.872 990.156 360.726C991.527 362.579 995.646 369.134 999.309 375.291C1011.81 396.31 1035.05 422.353 1050.11 432.215C1067.59 443.662 1085.27 450.039 1099.52 450.039C1111.76 450.039 1125.5 445.13 1135.68 437.119C1138.16 435.173 1146.01 429.494 1153.14 424.499C1170.93 412.029 1177 405.754 1180.74 395.928C1182.39 391.611 1184.35 387.846 1185.09 387.561C1188.25 386.35 1229.16 403.931 1268.27 423.311C1282.98 430.602 1298.96 438.124 1303.77 440.026C1308.59 441.928 1317.49 445.983 1323.57 449.038L1334.61 454.591L1339.62 452.378C1342.46 451.127 1344.63 449.407 1344.63 448.417C1344.63 447.455 1345.47 446.669 1346.49 446.669C1349.59 446.669 1369 436.644 1373.64 432.65C1374.83 431.627 1371.66 428.162 1367.27 425.689C1361.69 422.537 1339.99 408.808 1324.28 398.481C1294.45 378.875 1264.2 352.62 1245.17 329.831C1228.89 310.326 1219.4 290.476 1215.42 267.596C1213.28 255.271 1211.92 223.171 1213.44 220.972C1214.34 219.675 1217.05 220.339 1229.01 224.79C1249.29 232.334 1304.64 253.503 1323.51 260.928C1332.19 264.343 1346.64 269.946 1355.63 273.382C1364.62 276.817 1377.8 281.863 1384.93 284.594C1403.33 291.642 1414.17 294.969 1418.81 294.988C1422.78 295.005 1431.37 289.807 1437.42 283.729C1438.73 282.419 1442.09 280.25 1444.9 278.908C1447.71 277.566 1452.05 274.741 1454.56 272.63C1458.91 268.957 1459.04 268.667 1457.55 265.793C1456.69 264.143 1454.05 261.342 1451.69 259.568C1441.52 251.933 1407.68 223.381 1391.57 208.847C1344.16 166.066 1304.93 118.977 1286.93 83.2369C1281.07 71.6048 1272.97 49.1754 1273.1 44.9569C1273.16 43.1493 1272.85 39.5217 1272.41 36.8951C1271.44 31.06 1269.01 30.6241 1263.02 35.2099C1260.79 36.9086 1256.19 40.1081 1252.78 42.3179C1249.38 44.5288 1245.92 47.1577 1245.1 48.1598C1244.27 49.163 1241.4 51.0482 1238.7 52.3502C1233.15 55.0352 1232.16 57.5057 1232.33 68.3693C1232.6 85.668 1247.5 118.247 1267.91 146.149C1272.8 152.832 1288.18 171.911 1290.1 173.674C1290.44 173.982 1294.76 178.785 1299.7 184.346C1304.64 189.907 1314.25 200.137 1321.05 207.08C1327.86 214.023 1333.08 220.051 1332.65 220.476C1332.23 220.902 1328.46 219.818 1324.28 218.068C1320.1 216.319 1313.95 213.958 1310.61 212.822C1307.27 211.686 1298.81 208.476 1291.82 205.689C1284.83 202.901 1265.76 195.865 1249.44 190.052C1215.24 177.874 1218.23 180.687 1220.18 162.521C1221.48 150.512 1220.6 145.002 1216.88 141.645C1214.36 139.374 1215.42 139.022 1201.13 146.869C1196.49 149.419 1190.33 153.173 1187.45 155.213C1174.17 164.601 1171.62 164.961 1154.97 159.8C1131.59 152.551 1083.92 141.089 1045.12 133.388C1019.91 128.387 1019.53 128.321 1015.05 128.299C1012.77 128.288 1011.1 127.956 1011.35 127.562C1011.59 127.169 1005.6 125.772 998.034 124.46C973.377 120.184 969.758 119.735 968.678 120.814C968.044 121.447 967.009 121.224 966.02 120.238C965.129 119.351 962.704 118.625 960.631 118.625C958.558 118.625 955.976 118.287 954.894 117.872C953.552 117.359 953.186 117.538 953.743 118.434C954.192 119.158 954.052 119.749 953.433 119.749C952.813 119.749 951.958 119.187 951.532 118.502C951.086 117.784 949.199 117.506 947.092 117.848C945.077 118.173 942.986 118.012 942.448 117.487C941.91 116.962 938.048 116.373 933.868 116.175C929.688 115.978 926.265 115.491 926.264 115.093C926.262 114.694 925.119 114.373 923.726 114.377C922.333 114.382 919.971 113.995 918.481 113.52C916.91 113.018 916.037 113.083 916.405 113.673C917.567 115.532 897.747 114.145 895.601 112.217C894.184 110.945 892.043 110.611 887.647 110.975C882.195 111.425 878.949 110.317 878.945 108.004C878.945 107.672 886.159 101.668 894.975 94.6633C927.021 69.204 934.689 55.9104 926.836 39.4228C920.622 26.3775 903.312 16.2609 866.126 3.94468C850.223 -1.32311 847.997 -1.31974 839.366 3.98401ZM894.367 49.6034C893.99 49.9798 893.073 49.1068 892.328 47.6644C891.035 45.1557 891.065 45.1254 893.014 46.9791C894.136 48.0463 894.745 49.2271 894.367 49.6034ZM887.894 52.931C889.968 55.4194 888.791 55.7059 886.464 53.2782C885.379 52.1457 884.935 51.2189 885.479 51.2189C886.022 51.2189 887.109 51.9896 887.894 52.931ZM388.357 56.8361C387.937 58.1651 387.338 58.9998 387.028 58.6909C386.717 58.3819 386.809 57.0417 387.229 55.7127C387.65 54.3836 388.249 53.5489 388.559 53.8579C388.869 54.1668 388.778 55.5071 388.357 56.8361ZM404.549 62.3578C404.65 68.7805 405.741 72.9338 409.664 81.8326C412.869 89.1012 410.42 86.4128 406.768 78.6532C403.118 70.9004 401.672 63.4318 402.885 58.5887C403.998 54.1365 404.436 55.1285 404.549 62.3578ZM410.686 66.947C411.343 71.9733 411.337 71.9834 409.764 68.6322C408.042 64.963 407.416 57.2315 409.083 60.2064C409.602 61.1332 410.324 64.1665 410.686 66.947ZM265.752 74.2224C279.444 79.2071 324.09 105.529 355.802 127.312C358.282 129.016 362.28 131.558 364.687 132.961C367.092 134.364 371.405 137.43 374.271 139.773C377.135 142.116 383.792 146.991 389.063 150.607C399.036 157.448 406.096 162.945 415.416 171.122C418.435 173.772 422.6 176.743 424.67 177.721C431.626 181.012 471.802 221.87 471.185 225.026C470.94 226.276 468.01 227.384 461.267 228.775C450.386 231.018 442.451 234.321 430.407 241.62C425.801 244.413 421.269 246.697 420.339 246.697C419.409 246.697 411.381 241.263 402.499 234.62C393.617 227.977 382.8 220.031 378.46 216.961C366.578 208.552 336.59 185.342 328.284 178.127C315.396 166.93 304.351 157.945 303.475 157.945C301.733 157.945 294.469 161.378 294.471 162.199C294.471 162.668 292.738 163.984 290.619 165.123C288.232 166.406 286.994 167.786 287.366 168.748C287.696 169.603 287.346 170.303 286.589 170.303C285.831 170.303 287.086 172.37 289.378 174.897C291.67 177.424 293.288 179.748 292.973 180.063C292.658 180.377 290.01 178.816 287.087 176.592C280.747 171.769 278.523 171.6 272.87 175.511C266.898 179.643 267.1 182.995 273.713 189.459C280.459 196.055 305.599 232.762 307.552 238.868C307.961 240.15 309.977 244.155 312.03 247.769C314.083 251.383 316.395 256.284 317.167 258.663C317.938 261.041 318.921 263.492 319.349 264.11C319.777 264.728 320.787 267.509 321.593 270.289C322.399 273.07 323.516 276.356 324.074 277.591C325.999 281.846 330.715 306.811 330.734 312.836C330.756 320.354 329.885 319.81 321.318 306.966C303.899 280.848 299.605 272.443 281.347 228.722C272.786 208.22 269.913 201.138 266.993 193.334C266.531 192.098 265.748 190.076 265.254 188.84C263.01 183.228 257.306 164.533 257.303 162.78C257.302 161.707 256.556 158.79 255.646 156.297C254.736 153.806 252.326 141.656 250.29 129.298C247.253 110.853 246.578 103.644 246.527 89.0473C246.47 73.0113 246.668 71.115 248.547 69.741C250.303 68.4569 251.19 68.4592 254.179 69.7579C256.131 70.6061 261.339 72.6148 265.752 74.2224ZM314.62 80.4283C315.55 81.0271 315.804 81.5169 315.184 81.5169C314.565 81.5169 313.297 81.0271 312.367 80.4283C311.437 79.8295 311.183 79.3397 311.802 79.3397C312.422 79.3397 313.69 79.8295 314.62 80.4283ZM335.001 92.3816C335.979 93.222 337.162 93.9095 337.628 93.9095C338.563 93.9095 374.26 117.129 376.063 118.909C378.125 120.947 371.698 117.231 359.153 109.133C335.067 93.5837 332.026 91.6694 325.049 87.6576C321.175 85.4287 318.003 83.3526 318.003 83.0436C318.001 82.319 332.658 90.3707 335.001 92.3816ZM573.265 88.3743C579.1 91.7008 580.93 93.9095 577.853 93.9095C577.044 93.9095 574.664 92.6456 572.562 91.1009C570.46 89.5562 568.206 88.2766 567.552 88.2564C566.898 88.2373 565.377 87.479 564.174 86.5712C559.842 83.3065 566.797 84.6861 573.265 88.3743ZM537.213 97.3484C546.107 102.42 545.61 103.225 535.994 99.3211C531.332 97.4281 527.516 95.4363 527.515 94.8948C527.512 92.9973 531.234 93.9387 537.213 97.3484ZM226.721 120.31C227.427 128.961 228.321 138.313 228.707 141.094C229.093 143.874 229.093 145.857 228.707 145.501C227.826 144.687 224.557 116.575 223.951 104.582C223.237 90.483 225.191 101.581 226.721 120.31ZM1297.24 106.887C1297.62 107.887 1297.43 108.338 1296.8 107.945C1296.18 107.567 1295.68 106.783 1295.68 106.201C1295.68 104.586 1296.48 104.942 1297.24 106.887ZM1306.75 122.586C1306.4 122.932 1305.77 122.309 1305.35 121.201C1304.73 119.6 1304.86 119.471 1305.98 120.572C1306.75 121.335 1307.1 122.241 1306.75 122.586ZM1316.06 133.23C1334.57 156.088 1364.24 187.991 1382.31 204.44C1388.34 209.931 1405.36 224.465 1420.13 236.739C1447.34 259.352 1453.63 265.683 1434.31 251.012C1397.32 222.923 1361.94 190.145 1335.61 159.587C1323.28 145.275 1309.23 127.28 1309.22 125.799C1309.22 124.793 1309.29 124.869 1316.06 133.23ZM231.005 154.856C230.694 155.629 230.438 154.996 230.435 153.452C230.433 151.907 230.688 151.276 231.001 152.047C231.315 152.82 231.317 154.084 231.005 154.856ZM232.176 161.014C231.891 162.107 231.638 161.484 231.613 159.631C231.587 157.777 231.819 156.883 232.129 157.643C232.439 158.404 232.46 159.92 232.176 161.014ZM1150.16 160.871C1149.79 161.244 1148.82 161.284 1148 160.96C1147.11 160.601 1147.37 160.335 1148.68 160.281C1149.87 160.233 1150.54 160.498 1150.16 160.871ZM233.299 166.021C232.941 166.916 232.673 166.65 232.617 165.341C232.567 164.157 232.832 163.494 233.206 163.867C233.581 164.24 233.623 165.21 233.299 166.021ZM1162.29 164.674C1162.69 165.31 1162.24 165.498 1161.23 165.115C1159.28 164.368 1158.92 163.563 1160.54 163.563C1161.13 163.563 1161.91 164.063 1162.29 164.674ZM236.673 178.448C236.362 179.221 236.105 178.589 236.103 177.044C236.101 175.499 236.355 174.868 236.668 175.64C236.983 176.412 236.985 177.676 236.673 178.448ZM110.797 182.018C134.285 190.1 159.874 209.697 180.907 235.709C191.296 248.556 194.85 254.708 186.283 245.012C150.987 205.067 121.918 185.064 90.6337 179.199C86.4393 178.412 87.0214 178.326 94.0119 178.699C99.0605 178.968 105.815 180.304 110.797 182.018ZM237.829 182.872C237.472 183.768 237.204 183.501 237.148 182.193C237.098 181.008 237.363 180.346 237.737 180.719C238.112 181.092 238.154 182.061 237.829 182.872ZM853.16 186.394C859.364 191.98 873.649 208.748 884.431 223.105C890.696 231.446 901.33 244.783 908.061 252.741C914.791 260.699 921.568 268.874 923.12 270.905C930.435 280.484 938.094 289.388 939.019 289.388C939.582 289.388 940.044 289.949 940.045 290.636C940.047 292.305 937.85 291.859 897.795 282.063C879.204 277.516 862.063 273.45 859.704 273.029C851.286 271.524 848.829 262.947 847.924 231.915C847.285 209.974 848.202 183.752 849.607 183.82C850.01 183.84 851.609 184.998 853.16 186.394ZM1238.03 188.242C1240.64 188.913 1243.04 189.897 1243.37 190.428C1243.7 190.96 1245.88 191.769 1248.21 192.227C1250.54 192.685 1251.88 193.269 1251.19 193.522C1250.49 193.777 1247.71 193.182 1244.99 192.199C1242.28 191.217 1237.65 189.66 1234.7 188.741C1231.76 187.821 1229.35 186.801 1229.35 186.474C1229.35 186.147 1230.23 186.137 1231.32 186.45C1232.4 186.764 1235.43 187.57 1238.03 188.242ZM246.579 206.815C247.422 209.286 250.019 215.859 252.35 221.42C256.358 230.977 259.522 238.898 265.242 253.688C268.633 262.46 285.756 296.512 290.255 303.43C292.264 306.52 295.215 311.07 296.813 313.541C301.731 321.145 309.499 331.077 318.339 341.066C327.184 351.061 326.265 351.462 316.907 341.691C296.574 320.458 274.587 282.51 256.335 237.148C249.299 219.659 240.435 194.248 240.532 191.845C240.601 190.131 242.464 194.742 246.579 206.815ZM1004.73 199.655C1015.36 206.355 1033.75 222.34 1057.47 245.515C1073.42 261.093 1086.13 275.466 1084.98 276.615C1084.63 276.969 1081.9 276.473 1078.91 275.511C1066.63 271.554 1026.36 265.795 1010.97 265.795C1004.42 265.795 1000.73 265.324 1000 264.391C998.962 263.07 997.171 251.245 995.704 236.024C994.703 225.635 996.291 196.142 997.853 196.142C998.568 196.142 1001.66 197.723 1004.73 199.655ZM1278.37 202.883C1279.79 203.492 1280 203.848 1278.93 203.848C1278 203.848 1276.23 203.414 1274.99 202.883C1273.57 202.274 1273.36 201.918 1274.42 201.918C1275.35 201.918 1277.13 202.352 1278.37 202.883ZM110.392 204.022C111.359 205.579 119.967 209.883 119.954 208.803C119.945 207.957 111.732 202.883 110.372 202.883C109.994 202.883 110.003 203.395 110.392 204.022ZM1289.08 207.377C1291.14 208.703 1289.36 208.703 1286.26 207.377C1284.77 206.74 1284.58 206.39 1285.69 206.35C1286.62 206.315 1288.15 206.778 1289.08 207.377ZM1310.13 215.314C1316.84 217.826 1323.95 220.373 1325.94 220.972C1327.93 221.574 1329.92 222.637 1330.35 223.337C1330.9 224.211 1330.47 224.344 1328.99 223.76C1327.8 223.292 1322.27 221.219 1316.69 219.15C1301.62 213.565 1295.11 210.858 1296.61 210.8C1297.34 210.771 1303.43 212.802 1310.13 215.314ZM128.517 216.469C129.691 217.762 131.535 219.29 132.613 219.865C135.635 221.476 133.909 218.018 130.619 215.87C126.881 213.43 125.986 213.684 128.517 216.469ZM635.816 216.083C635.811 216.547 627.323 216.97 616.952 217.022C603.802 217.09 600.653 216.898 606.542 216.386C619.109 215.295 635.826 215.122 635.816 216.083ZM136.879 222.406C136.879 222.639 137.652 223.469 138.597 224.25C140.032 225.437 140.198 225.367 139.602 223.825C138.994 222.251 136.877 221.147 136.879 222.406ZM361.517 230.398C365.585 233.174 376.654 241.413 386.114 248.709C395.573 256.003 409.114 265.922 416.206 270.749C432.3 281.702 448.86 294.016 451.697 297.139C455.236 301.036 453.069 300.907 447.75 296.904C445.017 294.847 439.229 290.699 434.888 287.684C430.547 284.671 419.639 277.104 410.647 270.869C382.318 251.224 350.886 227.551 350.884 225.858C350.881 224.208 355.057 225.991 361.517 230.398ZM142.517 227.206C142.518 227.824 143.788 229.517 145.339 230.969C146.89 232.42 148.158 233.102 148.157 232.484C148.156 231.866 146.886 230.173 145.336 228.722C143.785 227.27 142.516 226.589 142.517 227.206ZM331.179 240.781C339.772 258.34 347.221 283.649 349.828 304.14C351.227 315.131 351.229 323.363 349.831 314.103C345.051 282.439 339.737 263.746 329.542 242.742C325.795 235.022 322.73 228.395 322.729 228.014C322.725 225.585 326.631 231.486 331.179 240.781ZM673.66 255.804C676.331 263.462 682.097 279.397 686.473 291.215C695.535 315.687 704.646 345.559 703.047 345.559C701.918 345.559 694.107 332.593 672.256 294.443C660.223 273.435 649.317 255.118 648.022 253.741C646.282 251.891 644.902 251.415 642.745 251.922C639.628 252.655 634.762 256.511 634.764 258.246C634.766 259.36 630.601 264.858 626.889 268.643C625.655 269.902 624.648 271.544 624.649 272.294C624.65 273.045 624.151 273.659 623.54 273.659C622.93 273.659 621.075 275.707 619.418 278.21L616.406 282.762L618.275 288.602C619.304 291.814 622.755 298.74 625.947 303.992C641.978 330.374 648.777 342.773 648.188 344.545C647.995 345.126 635.92 339.82 621.355 332.756C592.155 318.592 562.248 306.239 557.156 306.239C555.349 306.239 550.419 305.011 546.2 303.509C529.816 297.68 518.656 295.023 500.91 292.726C492.344 291.619 489.519 290.318 489.514 287.482C489.513 286.586 493.588 281.466 498.569 276.105C503.551 270.744 510.018 263.77 512.94 260.607C519.073 253.972 525.396 250.414 533.711 248.919C539.945 247.797 574.149 245.586 594.76 244.972C615.611 244.351 646.016 242.566 646.656 241.926C646.812 241.77 651.859 241.695 657.871 241.761L668.802 241.88L673.66 255.804ZM466.653 252.597C491.713 252.351 495.093 252.524 495.095 254.06C495.096 255.018 491.681 259.51 487.507 264.043C483.334 268.575 477.865 274.615 475.357 277.466C472.849 280.315 469.954 282.647 468.926 282.647C467.897 282.647 464.467 280.356 461.302 277.557C458.137 274.757 453.427 271.105 450.834 269.44C442.728 264.235 428.641 253.383 428.64 252.342C428.637 250.8 433.446 250.374 435.96 251.693C437.409 252.453 448.371 252.776 466.653 252.597ZM823.638 257.629C823.354 258.722 823.101 258.1 823.075 256.246C823.05 254.392 823.282 253.498 823.592 254.259C823.901 255.019 823.923 256.536 823.638 257.629ZM23.7272 273.659C30.8415 292.451 53.7897 318.737 80.8038 339.037C125.83 372.87 197.909 400.373 261.619 408.029C273.697 409.481 273.769 409.505 264.437 409.008C253.569 408.428 227.147 404.183 212.05 400.591C169.938 390.572 128.907 373.209 93.1473 350.276C55.2007 325.939 27.2285 294.06 18.5739 265.286C16.5928 258.702 20.4171 264.915 23.7272 273.659ZM522.757 298.375C523.141 298.993 522.948 299.498 522.329 299.498C521.709 299.498 520.888 298.993 520.505 298.375C520.121 297.757 520.314 297.252 520.933 297.252C521.553 297.252 522.373 297.757 522.757 298.375ZM532.087 300.818C537.526 302.183 544.056 305.097 541.706 305.109C540.972 305.112 538.944 304.549 537.199 303.856C535.455 303.164 531.745 301.945 528.956 301.149C522.548 299.318 525.054 299.052 532.087 300.818ZM496.942 331.766C499.332 333.758 501.052 335.621 500.763 335.91C500.021 336.653 487.502 327.338 486.775 325.503C486.049 323.668 490.55 326.442 496.942 331.766ZM506.488 339.459C506.489 339.768 505.475 339.48 504.235 338.819C502.995 338.157 501.98 337.364 501.979 337.055C501.979 336.746 502.993 337.034 504.233 337.695C505.473 338.357 506.488 339.15 506.488 339.459ZM1233.04 365.5C1234.49 366.891 1235.37 368.028 1234.99 368.028C1234.02 368.028 1226.24 360.629 1226.23 359.707C1226.23 359.292 1227.17 359.857 1228.32 360.963C1229.46 362.068 1231.59 364.11 1233.04 365.5ZM962.71 381.509C962.711 382.127 962.489 382.633 962.215 382.633C961.941 382.633 961.404 382.127 961.02 381.509C960.636 380.891 960.86 380.386 961.515 380.386C962.171 380.386 962.709 380.891 962.71 381.509ZM996.618 401.263C996.674 402.572 996.942 402.838 997.3 401.942C997.624 401.131 997.582 400.162 997.207 399.789C996.833 399.416 996.568 400.079 996.618 401.263ZM515.315 403.685C511.753 403.907 505.925 403.907 502.363 403.685C498.8 403.462 501.714 403.279 508.838 403.279C515.962 403.279 518.877 403.462 515.315 403.685ZM540.072 404.657C539.699 405.03 538.727 405.07 537.914 404.745C537.015 404.387 537.281 404.121 538.593 404.067C539.78 404.019 540.445 404.284 540.072 404.657ZM834.967 442.824C831.87 443.05 820.72 443.781 810.19 444.448C778.824 446.434 753.547 449.946 732.491 455.243C719.766 458.443 716.816 459.684 704.86 466.854C700.189 469.654 694.433 472.941 692.07 474.159C687.961 476.275 685.955 478.67 687.228 479.937C687.555 480.263 691.038 479.28 694.967 477.753C720.012 468.02 737.861 465.341 790.728 463.384C865.249 460.627 925.896 464.086 974.433 473.865C995.023 478.013 995.572 477.955 1013.53 469.779C1019.41 467.102 1025.12 464.609 1026.22 464.242C1029.22 463.232 1029.87 460.267 1027.47 458.515C1024.23 456.155 1009.78 452.589 995.478 450.622C988.353 449.641 979.228 448.339 975.2 447.729C955.422 444.729 927.885 443.223 885.651 442.831C860.872 442.601 838.064 442.597 834.967 442.824Z" fill="#252525"/>
</svg>
