<svg width="1459" height="292" viewBox="0 0 1459 292" fill="none" xmlns="http://www.w3.org/2000/svg">
<path fill-rule="evenodd" clip-rule="evenodd" d="M839.366 -184.016C831.045 -178.903 827.927 -175.652 828.907 -173.112C829.463 -171.674 828.981 -171.487 826.25 -172.085C823.725 -172.639 822.423 -172.274 820.893 -170.584C818.925 -168.413 818.973 -168.29 822.657 -166.041C824.74 -164.769 831.262 -161.892 837.15 -159.648C862.387 -150.025 865.992 -148.487 872.152 -144.7C885.814 -136.301 890.737 -129.126 890.666 -117.712C890.587 -105.024 878.389 -89.3552 855.286 -72.2655C840.396 -61.2502 837.305 -58.3259 837.309 -55.2578C837.312 -53.6232 838.354 -52.3773 840.412 -51.5493C842.118 -50.8629 856.392 -49.0081 872.133 -47.4285C903.718 -44.2571 920.294 -42.1338 933.07 -39.624C937.717 -38.7107 950.138 -36.6727 960.672 -35.0943C1015.32 -26.9101 1085.91 -9.89562 1160.47 13.0652C1175.86 17.8038 1176.85 18.4936 1175.99 23.8075C1173.53 38.9671 1172.7 50.3902 1172.88 66.561C1173.31 104.757 1176.54 118.196 1192.76 149.134C1194.37 152.223 1198.77 158.254 1202.52 162.534C1206.27 166.814 1209.34 170.986 1209.34 171.802C1209.34 173.645 1209.92 173.718 1202.61 170.951C1198.94 169.56 1193.87 168.626 1190.08 168.644C1183.08 168.678 1182.33 168.149 1176.11 158.885C1170.57 150.632 1162.47 148.343 1157.5 153.627C1156.05 155.172 1154.27 156.436 1153.54 156.436C1152.82 156.436 1151.29 157.462 1150.16 158.715C1149.02 159.969 1144.7 163.227 1140.55 165.956C1136.4 168.685 1131.91 172.317 1130.56 174.029C1128.41 176.765 1128.33 177.217 1129.94 177.779C1134.18 179.261 1141.63 188.21 1144.11 194.789C1146.4 200.882 1146.58 202.809 1145.97 214.656C1145.34 226.955 1145.12 227.931 1142.39 230.302C1140.26 232.151 1138.06 232.83 1134.19 232.83C1108.67 232.829 1078.89 215.312 1052.99 185.084C1043.06 173.484 1025.16 145.884 1026.33 143.978C1026.7 143.392 1029.49 141.649 1032.54 140.106C1035.59 138.562 1038.09 136.581 1038.08 135.705C1038.08 134.828 1034.59 131.774 1030.32 128.92C1015.9 119.278 1008.91 111.907 1006.99 104.289C1006.11 100.842 1005.53 100.893 1020.89 103.069C1035.22 105.102 1041.59 106.714 1065.08 114.249C1099.46 125.275 1121.45 134.751 1138.24 145.771L1145.97 150.85L1153.14 146.968C1157.08 144.833 1162.45 142.021 1165.08 140.721C1167.72 139.42 1169.87 137.873 1169.87 137.285C1169.86 136.696 1170.9 136.214 1172.16 136.214C1175.61 136.214 1181.06 131.787 1180.3 129.611C1179.94 128.608 1174.26 122.227 1167.66 115.43C1155.64 103.043 1137.29 82.8138 1117.5 60.1462C1091.39 30.2425 1050.47 -5.34121 1032.27 -13.9681C1016.91 -21.2435 1008.01 -20.3312 990.341 -9.67206C985.2 -6.57025 978.967 -3.00783 976.491 -1.7552C963.691 4.7158 960.256 12.5259 959.182 37.6044C958.765 47.321 958.151 55.5457 957.814 55.8805C957.097 56.5973 948.292 46.0414 932.055 24.9938C908.085 -6.07482 887.25 -28.3301 877.02 -33.79C873.687 -35.5695 868.473 -37.2311 865.148 -37.5726C858.68 -38.2388 852.449 -36.2177 834.536 -27.6426C829.584 -25.2732 824.942 -23.3286 824.22 -23.3241C823.498 -23.3185 820.89 -21.0244 818.426 -18.2259C814.452 -13.7164 813.726 -11.9627 812.033 -2.77864C810.982 2.9183 809.789 14.6582 809.381 23.3087L808.64 39.0368L807.755 30.611C807.269 25.9768 807.019 14.602 807.2 5.33369L807.529 -11.5179L804.713 -11.3606C796.429 -10.8989 787.84 -8.08127 772.645 -0.839594C742.14 13.6999 733.219 22.6155 723.753 48.0243C719.146 60.3911 718.396 59.6148 711.818 35.6665C706.491 16.2737 682.969 -53.0109 681.071 -54.9016C679.556 -56.4104 671.742 -54.6904 671.745 -52.8491C671.747 -51.6425 670.912 -51.4044 668.522 -51.9279C666.615 -52.3458 663.738 -51.9515 661.484 -50.964C659.387 -50.045 654.631 -48.6306 650.916 -47.8195C644.544 -46.4287 644.141 -46.1444 643.823 -42.8337C643.638 -40.9025 644.583 -36.3526 645.923 -32.7227C647.265 -29.0929 648.488 -23.0893 648.643 -19.3819C648.814 -15.3005 650.573 -7.63865 653.104 0.040045C655.402 7.01547 656.985 13.2045 656.62 13.7932C656.256 14.383 651.55 14.8312 646.163 14.7885C631.4 14.6717 574.859 19.0632 564.013 21.1685C558.817 22.1774 559.294 20.372 566.374 12.2473C578.538 -1.7125 587.55 -13.758 590.815 -20.4177C592.655 -24.1734 595.134 -28.7795 596.322 -30.6522C597.511 -32.5261 599.315 -37.312 600.329 -41.2889C602.808 -50.9966 602.028 -73.0609 598.924 -81.0114C596.223 -87.9318 590.62 -94.4927 585.842 -96.3306C583.803 -97.1148 577.532 -99.9537 571.907 -102.639C566.281 -105.324 559.097 -108.114 555.94 -108.841C550.953 -109.988 549.955 -109.919 548.34 -108.305C546.254 -106.221 544.39 -105.875 544.388 -107.572C544.385 -109.475 541.468 -108.82 538.134 -106.167C534.695 -103.432 528.637 -99.9324 520.968 -96.2531C514.478 -93.1401 514.935 -90.455 522.127 -89.4294C528.149 -88.5699 527.313 -88.9789 539.686 -80.8587C554.367 -71.2252 556.615 -67.0269 557.67 -47.2713C558.698 -28.0324 555.498 -15.9487 544.609 2.0364C537.984 12.9832 526.378 28.2125 524.084 28.973C520.987 29.9999 517.973 27.653 515.957 22.647C514.924 20.0844 512.912 16.4052 511.484 14.4695C510.056 12.5338 507.735 8.67591 506.327 5.8954C503.13 -0.416064 485.602 -26.5056 476.514 -38.4804C469.406 -47.8476 453.388 -67.6088 439.636 -83.9796C432.469 -92.5109 427.899 -98.8224 422.553 -107.572C419.579 -112.44 416.223 -122.537 415.386 -129.136C414.7 -134.544 414.976 -136.306 417.226 -140.913C420.797 -148.226 429.546 -156.83 438.486 -161.818C447.138 -166.647 450.817 -168.014 471.002 -173.902C479.32 -176.327 486.641 -178.827 487.269 -179.454C489.021 -181.204 474.375 -180.877 465.598 -178.971C461.484 -178.076 453.558 -176.477 447.984 -175.414C414.562 -169.043 383.49 -151.853 376.122 -135.658C374.367 -131.801 373.813 -128.205 373.784 -120.491C373.749 -110.707 373.919 -110.026 379.043 -99.4268C381.954 -93.4018 384.069 -88.4733 383.743 -88.4733C383.415 -88.4733 373.428 -94.441 361.549 -101.734C316.269 -129.535 300.518 -136.965 276.697 -141.767C268.492 -143.421 266.73 -143.442 259.655 -141.97C255.315 -141.067 247.526 -138.233 242.345 -135.67C237.165 -133.109 230.258 -129.997 226.998 -128.754C218.85 -125.649 215.208 -122.265 211.773 -114.603C207.849 -105.852 207.103 -95.069 208.683 -69.9366C211.422 -26.345 221.903 14.3965 243.362 64.8758C246.251 71.6726 249.581 79.6187 250.763 82.5351C256.412 96.4815 272.01 125.535 279.762 136.549C297.823 162.21 310.773 176.419 320.002 180.702C327.953 184.393 332.982 184.142 342.534 179.576C356.63 172.84 368.116 167.67 368.989 167.67C370.709 167.67 374.815 162.298 375.935 158.582C378.039 151.596 377.005 135.292 372.917 110.991C370.729 97.9858 368.231 85.0696 367.367 82.2891C364.958 74.5273 364.579 72.2321 365.609 71.5974C366.859 70.8256 382.397 81.3881 412.739 103.634C443.05 125.859 444.288 126.961 441.128 128.912C439.4 129.977 439.798 133.967 441.632 133.967C442.525 133.967 443.567 133.462 443.949 132.844C445.217 130.793 450.347 131.681 453.935 134.572C455.88 136.139 459.817 139.299 462.681 141.593C465.546 143.886 469.037 146.699 470.438 147.843C471.84 148.985 480.948 155.81 490.679 163.009C512.167 178.904 512.332 179.031 521.935 186.934C526.174 190.422 531.835 194.411 534.516 195.797C538.888 198.057 539.214 198.494 537.672 200.033C536.153 201.552 534.096 201.58 519.839 200.279C500.623 198.527 472.816 199.377 402.384 203.869C367.595 206.087 302.432 205.757 283.296 203.264C234.018 196.844 187.493 183.739 145.995 164.59C109.396 147.7 69.051 115.775 50.9988 89.4173C39.338 72.3928 32.8061 48.5253 35.2269 31.7861C37.5407 15.785 44.1569 4.84386 52.8397 2.66215C58.4601 1.24999 78.5418 0.939924 79.865 2.24423C80.3343 2.70709 81.5603 3.1385 82.5876 3.20141C89.6773 3.63618 90.0345 3.71818 88.6516 4.59446C87.6062 5.25616 87.9811 5.85496 90.0223 6.7818C91.7817 7.58056 93.0815 7.65359 93.4995 6.97616C93.8669 6.38186 93.2511 5.85497 92.1304 5.80666C91.0096 5.75835 90.6893 5.47524 91.4176 5.17865C93.7138 4.24395 109.349 11.4351 119.073 17.896C139.138 31.2289 160.85 51.0093 171.084 65.2792C177.864 74.7329 173.322 71.4154 163.502 59.7406C155.005 49.6398 148.705 43.544 151.108 47.7468C151.657 48.7073 154.899 52.4596 158.312 56.0849C165.163 63.3648 165.663 64.0153 175.133 77.9897C186.593 94.8986 198.91 122.79 203.822 142.955C205.102 148.207 206.631 153.136 207.222 153.908C209.679 157.119 213.127 154.893 227.238 140.989L241.774 126.665L241.762 121.215C241.746 114.285 233.183 88.1029 225.77 72.3276C214.371 48.0647 196.432 25.3702 173.441 6.12347C153.84 -10.2832 136.656 -19.8246 119.139 -24.0273C109.215 -26.409 92.3369 -26.3787 82.1632 -23.9622C71.8432 -21.5097 55.6826 -13.5052 47.0848 -6.58709C43.3118 -3.55044 36.6693 1.27245 32.3239 4.1316C16.8368 14.3178 5.24461 29.6999 1.58365 44.9214C0.87631 47.8636 0.33619 55.5794 0.383256 62.0673C0.498686 77.9302 3.34738 88.4275 10.8515 100.645C15.2709 107.841 16.4466 110.677 15.9047 112.841C15.3282 115.147 16.4961 117.272 22.3335 124.529C43.9096 151.355 77.5664 177.349 114.529 195.732C144.668 210.722 194.045 226.755 226.722 232.161C259.189 237.533 300.015 239.119 351.751 237.016C370.826 236.239 378.629 235.609 399.05 233.193C402.147 232.825 406.075 232.522 407.778 232.516C409.482 232.512 410.875 232.11 410.874 231.623C410.873 231.138 412.267 231.131 413.971 231.608C415.731 232.103 419.988 231.883 423.826 231.1C427.548 230.34 431.368 230.131 432.333 230.636C433.297 231.138 434.659 231.195 435.36 230.763C436.062 230.33 438.444 230.06 440.654 230.164C442.864 230.267 444.924 229.944 445.233 229.442C445.542 228.943 447.314 228.772 449.17 229.064C451.315 229.401 452.544 229.11 452.542 228.266C452.541 227.25 452.915 227.246 454.132 228.253C455.225 229.157 457.953 229.311 462.861 228.746C484.904 226.208 540.402 227.564 556.731 231.039C572.813 234.462 587.095 240.735 598.234 249.27L604.802 254.303L612.048 251.897C616.216 250.513 619.781 248.577 620.443 247.339C621.307 245.727 622.82 245.187 626.486 245.187C629.442 245.187 631.926 244.526 632.766 243.515C633.53 242.595 634.584 242.106 635.109 242.429C635.633 242.752 636.969 242.525 638.077 241.923C639.186 241.322 641.486 240.536 643.189 240.178C644.893 239.821 646.285 238.945 646.284 238.233C646.279 235.254 627.055 219.697 617.178 214.677C614.938 213.539 613.468 212.608 613.909 212.608C615.15 212.608 607.822 206.402 589.459 191.904C580.225 184.613 569.06 175.168 564.648 170.916C560.237 166.664 556.325 163.182 555.958 163.18C555.59 163.179 553.814 161.888 552.012 160.313L548.734 157.449L554.603 159.716C566.644 164.367 642.019 202.753 669.342 218.149C676.163 221.992 687.449 227.939 694.423 231.366L707.105 237.595L712.715 231.717C715.811 228.475 718.991 226.095 719.811 226.408C720.626 226.72 722.183 230.146 723.269 234.022C725.466 241.862 728.898 247.434 731.529 247.434C732.481 247.434 735.511 245.918 738.262 244.064C741.013 242.21 743.691 240.694 744.213 240.694C744.735 240.694 745.425 240.007 745.747 239.168C746.068 238.329 747.842 237.341 749.688 236.973C753.208 236.271 766.643 228.106 768.132 225.764C769.403 223.766 769.19 207.088 767.744 195.321C767.052 189.691 764.715 175.225 762.55 163.177C753.655 113.662 753.808 114.971 753.718 87.3446C753.644 64.4613 753.911 60.4136 756.055 51.9563C757.386 46.7043 759.213 40.6579 760.115 38.52L761.754 34.6329L762.471 42.4521C764.478 64.3377 767.118 76.2866 772.941 89.8555L776.911 99.1058L774.575 105.869C772.818 110.956 772.25 115.344 772.283 123.58C772.335 136.348 773.475 142.055 777.672 150.581C780.782 156.895 795.149 173.318 797.504 173.25C799.211 173.201 803.862 169.295 803.86 167.912C803.859 167.315 805.252 166.531 806.955 166.169C808.659 165.807 811.793 164.354 813.923 162.94C816.052 161.525 819.597 159.355 821.8 158.115C824.14 156.8 825.95 154.84 826.154 153.399C826.578 150.392 824.392 146.013 822.919 146.922C822.331 147.284 821.849 146.82 821.848 145.89C821.846 144.96 820.119 141.265 818.009 137.679C812.379 128.111 808.49 111.802 810.546 106.386C812.681 100.764 814.056 102.904 820.325 121.609C834.42 163.661 863.66 202.536 899.687 227.123C918.132 239.71 931.94 245.187 945.222 245.187C955.298 245.187 957.331 244.494 968.971 237.086C993.317 221.591 993.163 221.709 993.159 218.722C993.156 217.151 993.976 214.275 994.982 212.33C997.506 207.448 996.587 191.46 993.379 184.47C990.652 178.527 985.875 173.287 983.185 173.287C982.124 173.287 978.726 175.097 975.634 177.308C972.543 179.519 966.598 183.629 962.428 186.438C958.255 189.249 953.51 192.781 951.883 194.289L948.921 197.029L951.8 200.044C953.383 201.701 955.731 205.729 957.019 208.993C959.066 214.183 959.143 215.01 957.633 215.587C952.512 217.549 925.798 198.479 906.364 178.988C895.284 167.877 882.294 150.405 872.308 133.185C865.287 121.08 863.913 117.116 866.74 117.116C873.692 117.116 973.032 145.723 977.022 148.874C977.808 149.495 980.524 154.358 983.057 159.679C985.589 165.001 988.784 170.872 990.156 172.726C991.527 174.579 995.646 181.134 999.309 187.291C1011.81 208.31 1035.05 234.353 1050.11 244.215C1067.59 255.662 1085.27 262.039 1099.52 262.039C1111.76 262.039 1125.5 257.13 1135.68 249.119C1138.16 247.173 1146.01 241.494 1153.14 236.499C1170.93 224.029 1177 217.754 1180.74 207.928C1182.39 203.611 1184.35 199.846 1185.09 199.561C1188.25 198.35 1229.16 215.931 1268.27 235.311C1282.98 242.602 1298.96 250.124 1303.77 252.026C1308.59 253.928 1317.49 257.983 1323.57 261.038L1334.61 266.591L1339.62 264.378C1342.46 263.127 1344.63 261.407 1344.63 260.417C1344.63 259.455 1345.47 258.669 1346.49 258.669C1349.59 258.669 1369 248.644 1373.64 244.65C1374.83 243.627 1371.66 240.162 1367.27 237.689C1361.69 234.537 1339.99 220.808 1324.28 210.481C1294.45 190.875 1264.2 164.62 1245.17 141.831C1228.89 122.326 1219.4 102.476 1215.42 79.5962C1213.28 67.271 1211.92 35.171 1213.44 32.9725C1214.34 31.6749 1217.05 32.3389 1229.01 36.7899C1249.29 44.3338 1304.64 65.5027 1323.51 72.9275C1332.19 76.3428 1346.64 81.9465 1355.63 85.3819C1364.62 88.8174 1377.8 93.8628 1384.93 96.5938C1403.33 103.642 1414.17 106.969 1418.81 106.988C1422.78 107.005 1431.37 101.807 1437.42 95.7288C1438.73 94.4189 1442.09 92.2495 1444.9 90.9081C1447.71 89.5656 1452.05 86.7413 1454.56 84.6304C1458.91 80.9567 1459.04 80.6669 1457.55 77.7931C1456.69 76.1428 1454.05 73.3421 1451.69 71.5682C1441.52 63.9333 1407.68 35.3811 1391.57 20.8472C1344.16 -21.9344 1304.93 -69.0232 1286.93 -104.763C1281.07 -116.395 1272.97 -138.825 1273.1 -143.043C1273.16 -144.851 1272.85 -148.478 1272.41 -151.105C1271.44 -156.94 1269.01 -157.376 1263.02 -152.79C1260.79 -151.091 1256.19 -147.892 1252.78 -145.682C1249.38 -143.471 1245.92 -140.842 1245.1 -139.84C1244.27 -138.837 1241.4 -136.952 1238.7 -135.65C1233.15 -132.965 1232.16 -130.494 1232.33 -119.631C1232.6 -102.332 1247.5 -69.7535 1267.91 -41.8507C1272.8 -35.1685 1288.18 -16.0891 1290.1 -14.3265C1290.44 -14.0175 1294.76 -9.21482 1299.7 -3.65381C1304.64 1.9072 1314.25 12.1372 1321.05 19.0801C1327.86 26.0229 1333.08 32.0513 1332.65 32.4759C1332.23 32.9017 1328.46 31.8176 1324.28 30.0684C1320.1 28.3192 1313.95 25.9577 1310.61 24.8219C1307.27 23.6861 1298.81 20.4765 1291.82 17.6892C1284.83 14.9009 1265.76 7.86478 1249.44 2.05212C1215.24 -10.1259 1218.23 -7.31285 1220.18 -25.4788C1221.48 -37.4884 1220.6 -42.9977 1216.88 -46.3545C1214.36 -48.6261 1215.42 -48.9777 1201.13 -41.1305C1196.49 -38.5815 1190.33 -34.8269 1187.45 -32.7868C1174.17 -23.3993 1171.62 -23.0387 1154.97 -28.1998C1131.59 -35.4493 1083.92 -46.9106 1045.12 -54.6118C1019.91 -59.6133 1019.53 -59.6785 1015.05 -59.701C1012.77 -59.7122 1011.1 -60.0436 1011.35 -60.4379C1011.59 -60.8311 1005.6 -62.2276 998.034 -63.5397C973.377 -67.8155 969.758 -68.2649 968.678 -67.1864C968.044 -66.5528 967.009 -66.7764 966.02 -67.7616C965.129 -68.6491 962.704 -69.3749 960.631 -69.3749C958.558 -69.3749 955.976 -69.713 954.894 -70.1276C953.552 -70.641 953.186 -70.4624 953.743 -69.5659C954.192 -68.8424 954.052 -68.2514 953.433 -68.2514C952.813 -68.2514 951.958 -68.8132 951.532 -69.4985C951.086 -70.2163 949.199 -70.4938 947.092 -70.1523C945.077 -69.8265 942.986 -69.9883 942.448 -70.5129C941.91 -71.0376 938.048 -71.6274 933.868 -71.8251C929.688 -72.0217 926.265 -72.5093 926.264 -72.907C926.262 -73.3058 925.119 -73.6271 923.726 -73.6226C922.333 -73.6181 919.971 -74.0046 918.481 -74.4798C916.91 -74.982 916.037 -74.9168 916.405 -74.327C917.567 -72.4677 897.747 -73.8551 895.601 -75.783C894.184 -77.0547 892.043 -77.3895 887.647 -77.0255C882.195 -76.575 878.949 -77.6827 878.945 -79.9958C878.945 -80.3284 886.159 -86.332 894.975 -93.3367C927.021 -118.796 934.689 -132.09 926.836 -148.577C920.622 -161.623 903.312 -171.739 866.126 -184.055C850.223 -189.323 847.997 -189.32 839.366 -184.016ZM894.367 -138.397C893.99 -138.02 893.073 -138.893 892.328 -140.336C891.035 -142.844 891.065 -142.875 893.014 -141.021C894.136 -139.954 894.745 -138.773 894.367 -138.397ZM887.894 -135.069C889.968 -132.581 888.791 -132.294 886.464 -134.722C885.379 -135.854 884.935 -136.781 885.479 -136.781C886.022 -136.781 887.109 -136.01 887.894 -135.069ZM388.357 -131.164C387.937 -129.835 387.338 -129 387.028 -129.309C386.717 -129.618 386.809 -130.958 387.229 -132.287C387.65 -133.616 388.249 -134.451 388.559 -134.142C388.869 -133.833 388.778 -132.493 388.357 -131.164ZM404.549 -125.642C404.65 -119.22 405.741 -115.066 409.664 -106.167C412.869 -98.8988 410.42 -101.587 406.768 -109.347C403.118 -117.1 401.672 -124.568 402.885 -129.411C403.998 -133.864 404.436 -132.872 404.549 -125.642ZM410.686 -121.053C411.343 -116.027 411.337 -116.017 409.764 -119.368C408.042 -123.037 407.416 -130.768 409.083 -127.794C409.602 -126.867 410.324 -123.833 410.686 -121.053ZM265.752 -113.778C279.444 -108.793 324.09 -82.4708 355.802 -60.6885C358.282 -58.9842 362.28 -56.4419 364.687 -55.0387C367.092 -53.6355 371.405 -50.5697 374.271 -48.2273C377.135 -45.8838 383.792 -41.0092 389.063 -37.3929C399.036 -30.5523 406.096 -25.0553 415.416 -16.8778C418.435 -14.2276 422.6 -11.2572 424.67 -10.2787C431.626 -6.98817 471.802 33.8701 471.185 37.0258C470.94 38.2762 468.01 39.3839 461.267 40.7747C450.386 43.0183 442.451 46.3211 430.407 53.6201C425.801 56.413 421.269 58.6969 420.339 58.6969C419.409 58.6969 411.381 53.2629 402.499 46.62C393.617 39.9771 382.8 32.031 378.46 28.9607C366.578 20.5518 336.59 -2.65844 328.284 -9.87315C315.396 -21.0704 304.351 -30.0546 303.475 -30.0546C301.733 -30.0546 294.469 -26.6225 294.471 -25.8013C294.471 -25.3317 292.738 -24.0161 290.619 -22.8769C288.232 -21.594 286.994 -20.2144 287.366 -19.2516C287.696 -18.3967 287.346 -17.6968 286.589 -17.6968C285.831 -17.6968 287.086 -15.6296 289.378 -13.103C291.67 -10.5764 293.288 -8.25204 292.973 -7.93748C292.658 -7.62292 290.01 -9.18448 287.087 -11.4078C280.747 -16.2307 278.523 -16.4003 272.87 -12.4885C266.898 -8.35651 267.1 -5.00531 273.713 1.45895C280.459 8.05464 305.599 44.7618 307.552 50.8677C307.961 52.1496 309.977 56.1546 312.03 59.7687C314.083 63.3828 316.395 68.2844 317.167 70.6627C317.938 73.041 318.921 75.4923 319.349 76.1102C319.777 76.7281 320.787 79.5086 321.593 82.2891C322.399 85.0696 323.516 88.3557 324.074 89.5915C325.999 93.8459 330.715 118.811 330.734 124.836C330.756 132.354 329.885 131.81 321.318 118.966C303.899 92.8483 299.605 84.4427 281.347 40.722C272.786 20.2203 269.913 13.1382 266.993 5.33369C266.531 4.09791 265.748 2.07572 265.254 0.839938C263.01 -4.77163 257.306 -23.4668 257.303 -25.2204C257.302 -26.2933 256.556 -29.2097 255.646 -31.7027C254.736 -34.1944 252.326 -46.3444 250.29 -58.7022C247.253 -77.1468 246.578 -84.3559 246.527 -98.9527C246.47 -114.989 246.668 -116.885 248.547 -118.259C250.303 -119.543 251.19 -119.541 254.179 -118.242C256.131 -117.394 261.339 -115.385 265.752 -113.778ZM314.62 -107.572C315.55 -106.973 315.804 -106.483 315.184 -106.483C314.565 -106.483 313.297 -106.973 312.367 -107.572C311.437 -108.171 311.183 -108.66 311.802 -108.66C312.422 -108.66 313.69 -108.171 314.62 -107.572ZM335.001 -95.6184C335.979 -94.778 337.162 -94.0905 337.628 -94.0905C338.563 -94.0905 374.26 -70.8713 376.063 -69.0906C378.125 -67.0527 371.698 -70.7691 359.153 -78.8668C335.067 -94.4163 332.026 -96.3306 325.049 -100.342C321.175 -102.571 318.003 -104.647 318.003 -104.956C318.001 -105.681 332.658 -97.6293 335.001 -95.6184ZM573.265 -99.6257C579.1 -96.2992 580.93 -94.0905 577.853 -94.0905C577.044 -94.0905 574.664 -95.3544 572.562 -96.8991C570.46 -98.4438 568.206 -99.7234 567.552 -99.7436C566.898 -99.7627 565.377 -100.521 564.174 -101.429C559.842 -104.693 566.797 -103.314 573.265 -99.6257ZM537.213 -90.6516C546.107 -85.5805 545.61 -84.775 535.994 -88.6789C531.332 -90.5719 527.516 -92.5637 527.515 -93.1052C527.512 -95.0027 531.234 -94.0613 537.213 -90.6516ZM226.721 -67.6897C227.427 -59.0393 228.321 -49.6866 228.707 -46.9061C229.093 -44.1256 229.093 -42.1428 228.707 -42.4989C227.826 -43.3134 224.557 -71.4252 223.951 -83.4178C223.237 -97.517 225.191 -86.4185 226.721 -67.6897ZM1297.24 -81.1125C1297.62 -80.1127 1297.43 -79.6622 1296.8 -80.0554C1296.18 -80.4329 1295.68 -81.217 1295.68 -81.799C1295.68 -83.4145 1296.48 -83.0583 1297.24 -81.1125ZM1306.75 -65.4136C1306.4 -65.0676 1305.77 -65.6911 1305.35 -66.7988C1304.73 -68.3997 1304.86 -68.5289 1305.98 -67.428C1306.75 -66.6651 1307.1 -65.7585 1306.75 -65.4136ZM1316.06 -54.7702C1334.57 -31.9116 1364.24 -0.00937834 1382.31 16.44C1388.34 21.9313 1405.36 36.4652 1420.13 48.7388C1447.34 71.3524 1453.63 77.683 1434.31 63.0121C1397.32 34.9228 1361.94 2.14537 1335.61 -28.4132C1323.28 -42.7247 1309.23 -60.7199 1309.22 -62.2006C1309.22 -63.2072 1309.29 -63.1308 1316.06 -54.7702ZM231.005 -33.144C230.694 -32.3711 230.438 -33.0036 230.435 -34.5483C230.433 -36.0931 230.688 -36.7244 231.001 -35.9526C231.315 -35.1797 231.317 -33.9158 231.005 -33.144ZM232.176 -26.9865C231.891 -25.8934 231.638 -26.5158 231.613 -28.3694C231.587 -30.2231 231.819 -31.1173 232.129 -30.3568C232.439 -29.5962 232.46 -28.0796 232.176 -26.9865ZM1150.16 -27.1291C1149.79 -26.7562 1148.82 -26.7157 1148 -27.0404C1147.11 -27.3988 1147.37 -27.665 1148.68 -27.719C1149.87 -27.7673 1150.54 -27.5021 1150.16 -27.1291ZM233.299 -21.9793C232.941 -21.0839 232.673 -21.3502 232.617 -22.659C232.567 -23.8431 232.832 -24.5059 233.206 -24.1329C233.581 -23.76 233.623 -22.7904 233.299 -21.9793ZM1162.29 -23.3263C1162.69 -22.6905 1162.24 -22.5017 1161.23 -22.8848C1159.28 -23.6319 1158.92 -24.4374 1160.54 -24.4374C1161.13 -24.4374 1161.91 -23.9375 1162.29 -23.3263ZM236.673 -9.55185C236.362 -8.77893 236.105 -9.41142 236.103 -10.9561C236.101 -12.5009 236.355 -13.1322 236.668 -12.3604C236.983 -11.5875 236.985 -10.3237 236.673 -9.55185ZM110.797 -5.98158C134.285 2.10043 159.874 21.6965 180.907 47.7086C191.296 60.5562 194.85 66.7082 186.283 57.0118C150.987 17.0669 121.918 -2.93593 90.6337 -8.8014C86.4393 -9.5878 87.0214 -9.6743 94.0119 -9.30132C99.0605 -9.03169 105.815 -7.69594 110.797 -5.98158ZM237.829 -5.12775C237.472 -4.23238 237.204 -4.49864 237.148 -5.80745C237.098 -6.99155 237.363 -7.65437 237.737 -7.28139C238.112 -6.90841 238.154 -5.93888 237.829 -5.12775ZM853.16 -1.60579C859.364 3.97994 873.649 20.7484 884.431 35.1048C890.696 43.4463 901.33 56.7826 908.061 64.741C914.791 72.6995 921.568 80.8736 923.12 82.9048C930.435 92.4843 938.094 101.388 939.019 101.388C939.582 101.388 940.044 101.949 940.045 102.636C940.047 104.305 937.85 103.859 897.795 94.0628C879.204 89.5162 862.063 85.4505 859.704 85.0292C851.286 83.5238 848.829 74.9475 847.924 43.9148C847.285 21.974 848.202 -4.24811 849.607 -4.17958C850.01 -4.16048 851.609 -3.00222 853.16 -1.60579ZM1238.03 0.242273C1240.64 0.912964 1243.04 1.89709 1243.37 2.42848C1243.7 2.95987 1245.88 3.76874 1248.21 4.2271C1250.54 4.68546 1251.88 5.26853 1251.19 5.52242C1250.49 5.77744 1247.71 5.18203 1244.99 4.19902C1242.28 3.21714 1237.65 1.66005 1234.7 0.741079C1231.76 -0.179016 1229.35 -1.1991 1229.35 -1.52602C1229.35 -1.85294 1230.23 -1.86305 1231.32 -1.54961C1232.4 -1.23617 1235.43 -0.429543 1238.03 0.242273ZM246.579 18.8149C247.422 21.2865 250.019 27.8586 252.35 33.4196C256.358 42.9767 259.522 50.898 265.242 65.6881C268.633 74.4599 285.756 108.512 290.255 115.43C292.264 118.52 295.215 123.07 296.813 125.541C301.731 133.145 309.499 143.077 318.339 153.066C327.184 163.061 326.265 163.462 316.907 153.691C296.574 132.458 274.587 94.5099 256.335 49.1477C249.299 31.6592 240.435 6.24817 240.532 3.84514C240.601 2.13077 242.464 6.74248 246.579 18.8149ZM1004.73 11.6553C1015.36 18.3554 1033.75 34.3397 1057.47 57.5151C1073.42 73.0927 1086.13 87.4659 1084.98 88.6152C1084.63 88.9691 1081.9 88.4725 1078.91 87.5109C1066.63 83.5541 1026.36 77.7954 1010.97 77.7954C1004.42 77.7954 1000.73 77.3235 1000 76.3911C998.962 75.0699 997.171 63.2446 995.704 48.0243C994.703 37.6347 996.291 8.14228 997.853 8.14228C998.568 8.14228 1001.66 9.72295 1004.73 11.6553ZM1278.37 14.8829C1279.79 15.4918 1280 15.8479 1278.93 15.8479C1278 15.8479 1276.23 15.4143 1274.99 14.8829C1273.57 14.274 1273.36 13.9179 1274.42 13.9179C1275.35 13.9179 1277.13 14.3515 1278.37 14.8829ZM110.392 16.0221C111.359 17.5792 119.967 21.883 119.954 20.8034C119.945 19.9575 111.732 14.8829 110.372 14.8829C109.994 14.8829 110.003 15.3952 110.392 16.0221ZM1289.08 19.3766C1291.14 20.7034 1289.36 20.7034 1286.26 19.3766C1284.77 18.7397 1284.58 18.3903 1285.69 18.3498C1286.62 18.315 1288.15 18.7779 1289.08 19.3766ZM1310.13 27.3137C1316.84 29.8257 1323.95 32.3726 1325.94 32.9725C1327.93 33.5735 1329.92 34.6374 1330.35 35.3373C1330.9 36.2114 1330.47 36.3439 1328.99 35.7597C1327.8 35.2924 1322.27 33.2185 1316.69 31.1503C1301.62 25.5646 1295.11 22.8582 1296.61 22.7998C1297.34 22.7705 1303.43 24.8017 1310.13 27.3137ZM128.517 28.4686C129.691 29.7617 131.535 31.2896 132.613 31.8648C135.635 33.4758 133.909 30.0178 130.619 27.8698C126.881 25.4297 125.986 25.6836 128.517 28.4686ZM635.816 28.0833C635.811 28.5473 627.323 28.9697 616.952 29.0225C603.802 29.0899 600.653 28.8978 606.542 28.3855C619.109 27.2946 635.826 27.1216 635.816 28.0833ZM136.879 34.406C136.879 34.6385 137.652 35.4688 138.597 36.2496C140.032 37.437 140.198 37.3674 139.602 35.8249C138.994 34.2509 136.877 33.1466 136.879 34.406ZM361.517 42.3981C365.585 45.1741 376.654 53.4134 386.114 60.709C395.573 68.0035 409.114 77.9223 416.206 82.7486C432.3 93.7021 448.86 106.016 451.697 109.139C455.236 113.036 453.069 112.907 447.75 108.904C445.017 106.847 439.229 102.699 434.888 99.6844C430.547 96.6714 419.639 89.1039 410.647 82.8688C382.318 63.2244 350.886 39.5513 350.884 37.8583C350.881 36.208 355.057 37.9909 361.517 42.3981ZM142.517 39.2064C142.518 39.8243 143.788 41.5173 145.339 42.9688C146.89 44.4203 148.158 45.1022 148.157 44.4843C148.156 43.8664 146.886 42.1734 145.336 40.722C143.785 39.2705 142.516 38.5885 142.517 39.2064ZM331.179 52.7809C339.772 70.3403 347.221 95.649 349.828 116.14C351.227 127.131 351.229 135.363 349.831 126.103C345.051 94.4391 339.737 75.7462 329.542 54.7425C325.795 47.0222 322.73 40.395 322.729 40.0142C322.725 37.5853 326.631 43.4856 331.179 52.7809ZM673.66 67.8035C676.331 75.462 682.097 91.3968 686.473 103.215C695.535 127.687 704.646 157.559 703.047 157.559C701.918 157.559 694.107 144.593 672.256 106.443C660.223 85.4347 649.317 67.1182 648.022 65.7409C646.282 63.8906 644.902 63.4154 642.745 63.922C639.628 64.6545 634.762 68.5113 634.764 70.2459C634.766 71.3603 630.601 76.8584 626.889 80.6433C625.655 81.9015 624.648 83.544 624.649 84.2945C624.65 85.0449 624.151 85.6594 623.54 85.6594C622.93 85.6594 621.075 87.7074 619.418 90.2105L616.406 94.7615L618.275 100.602C619.304 103.814 622.755 110.74 625.947 115.992C641.978 142.374 648.777 154.773 648.188 156.545C647.995 157.126 635.92 151.82 621.355 144.756C592.155 130.592 562.248 118.239 557.156 118.239C555.349 118.239 550.419 117.011 546.2 115.509C529.816 109.68 518.656 107.023 500.91 104.726C492.344 103.619 489.519 102.318 489.514 99.4822C489.513 98.5857 493.588 93.4662 498.569 88.1052C503.551 82.7441 510.018 75.7698 512.94 72.6073C519.073 65.9723 525.396 62.4144 533.711 60.9191C539.945 59.7968 574.149 57.5859 594.76 56.9725C615.611 56.3512 646.016 54.5661 646.656 53.9257C646.812 53.7695 651.859 53.6954 657.871 53.7605L668.802 53.8797L673.66 67.8035ZM466.653 64.5972C491.713 64.3512 495.093 64.5242 495.095 66.0599C495.096 67.0182 491.681 71.5097 487.507 76.0428C483.334 80.5748 477.865 86.6155 475.357 89.4656C472.849 92.3147 469.954 94.6469 468.926 94.6469C467.897 94.6469 464.467 92.3562 461.302 89.5566C458.137 86.757 453.427 83.1047 450.834 81.4398C442.728 76.2349 428.641 65.3825 428.64 64.3422C428.637 62.7997 433.446 62.3739 435.96 63.6929C437.409 64.4534 448.371 64.7759 466.653 64.5972ZM823.638 69.6291C823.354 70.7222 823.101 70.0998 823.075 68.2462C823.05 66.3925 823.282 65.4982 823.592 66.2588C823.901 67.0193 823.923 68.536 823.638 69.6291ZM23.7272 85.6594C30.8415 104.451 53.7897 130.737 80.8038 151.037C125.83 184.87 197.909 212.373 261.619 220.029C273.697 221.481 273.769 221.505 264.437 221.008C253.569 220.428 227.147 216.183 212.05 212.591C169.938 202.572 128.907 185.209 93.1473 162.276C55.2007 137.939 27.2285 106.06 18.5739 77.2865C16.5928 70.702 20.4171 76.9146 23.7272 85.6594ZM522.757 110.375C523.141 110.993 522.948 111.498 522.329 111.498C521.709 111.498 520.888 110.993 520.505 110.375C520.121 109.757 520.314 109.252 520.933 109.252C521.553 109.252 522.373 109.757 522.757 110.375ZM532.087 112.818C537.526 114.183 544.056 117.097 541.706 117.109C540.972 117.112 538.944 116.549 537.199 115.856C535.455 115.164 531.745 113.945 528.956 113.149C522.548 111.318 525.054 111.052 532.087 112.818ZM496.942 143.766C499.332 145.758 501.052 147.621 500.763 147.91C500.021 148.653 487.502 139.338 486.775 137.503C486.049 135.668 490.55 138.442 496.942 143.766ZM506.488 151.459C506.489 151.768 505.475 151.48 504.235 150.819C502.995 150.157 501.98 149.364 501.979 149.055C501.979 148.746 502.993 149.034 504.233 149.695C505.473 150.357 506.488 151.15 506.488 151.459ZM1233.04 177.5C1234.49 178.891 1235.37 180.028 1234.99 180.028C1234.02 180.028 1226.24 172.629 1226.23 171.707C1226.23 171.292 1227.17 171.857 1228.32 172.963C1229.46 174.068 1231.59 176.11 1233.04 177.5ZM962.71 193.509C962.711 194.127 962.489 194.633 962.215 194.633C961.941 194.633 961.404 194.127 961.02 193.509C960.636 192.891 960.86 192.386 961.515 192.386C962.171 192.386 962.709 192.891 962.71 193.509ZM996.618 213.263C996.674 214.572 996.942 214.838 997.3 213.942C997.624 213.131 997.582 212.162 997.207 211.789C996.833 211.416 996.568 212.079 996.618 213.263ZM515.315 215.685C511.753 215.907 505.925 215.907 502.363 215.685C498.8 215.462 501.714 215.279 508.838 215.279C515.962 215.279 518.877 215.462 515.315 215.685ZM540.072 216.657C539.699 217.03 538.727 217.07 537.914 216.745C537.015 216.387 537.281 216.121 538.593 216.067C539.78 216.019 540.445 216.284 540.072 216.657ZM834.967 254.824C831.87 255.05 820.72 255.781 810.19 256.448C778.824 258.434 753.547 261.946 732.491 267.243C719.766 270.443 716.816 271.684 704.86 278.854C700.189 281.654 694.433 284.941 692.07 286.159C687.961 288.275 685.955 290.67 687.228 291.937C687.555 292.263 691.038 291.28 694.967 289.753C720.012 280.02 737.861 277.341 790.728 275.384C865.249 272.627 925.896 276.086 974.433 285.865C995.023 290.013 995.572 289.955 1013.53 281.779C1019.41 279.102 1025.12 276.609 1026.22 276.242C1029.22 275.232 1029.87 272.267 1027.47 270.515C1024.23 268.155 1009.78 264.589 995.478 262.622C988.353 261.641 979.228 260.339 975.2 259.729C955.422 256.729 927.885 255.223 885.651 254.831C860.872 254.601 838.064 254.597 834.967 254.824Z" fill="#202020"/>
</svg>
