<svg width="240" height="240" viewBox="0 0 240 240" fill="none" xmlns="http://www.w3.org/2000/svg">
<path d="M19 217.351L59.4141 177.218V45.7322H39.2071V59.0983H45.9192V171.886L32.4596 185.252V32.3661H59.4141V19H19V217.351Z" fill="white"/>
<path d="M221 32.3661V19H180.586V177.218L221 217.351V45.7322H200.793V59.0983H207.505V185.252L194.045 171.886V32.3661H221Z" fill="white"/>
<path fill-rule="evenodd" clip-rule="evenodd" d="M99.7929 177.218V163.852H86.3333V177.218L79.5859 183.919L72.8737 177.218V19H113.253V177.218L106.54 183.919L99.7929 177.218ZM99.7929 150.486V32.3661H86.298V150.486H99.7929Z" fill="white"/>
<path d="M160.379 183.919L167.126 177.218V19H126.712V177.218L133.46 183.919L140.207 177.218V32.3661H153.667V177.218L160.379 183.919Z" fill="white"/>
<path fill-rule="evenodd" clip-rule="evenodd" d="M82.1647 207.634H83.8604V216.018C83.8604 217.726 83.4365 218.977 82.5887 219.772C81.7408 220.591 80.4691 221 78.7734 221C77.8548 221 76.9717 220.871 76.1238 220.614C75.2995 220.38 74.6283 220.029 74.1102 219.562L74.958 218.193C75.4055 218.591 75.9707 218.895 76.6537 219.106C77.3132 219.339 77.9962 219.456 78.7027 219.456C79.8567 219.456 80.7046 219.187 81.2462 218.65C81.8115 218.112 82.0941 217.293 82.0941 216.194V215.422C81.6702 215.937 81.152 216.311 80.5397 216.545C79.9274 216.802 79.2679 216.93 78.5614 216.93C77.6193 216.93 76.7715 216.732 76.0178 216.334C75.2642 215.937 74.6636 215.375 74.2162 214.65C73.7922 213.949 73.5803 213.142 73.5803 212.23C73.5803 211.294 73.7922 210.476 74.2162 209.774C74.6636 209.049 75.2642 208.499 76.0178 208.125C76.7715 207.727 77.6193 207.529 78.5614 207.529C79.2915 207.529 79.9745 207.657 80.6104 207.915C81.2462 208.195 81.7644 208.593 82.1647 209.107V207.634ZM82.1294 212.265C82.1294 211.306 81.8115 210.534 81.1756 209.949C80.5397 209.388 79.7272 209.107 78.738 209.107C77.7489 209.107 76.9363 209.388 76.3005 209.949C75.6881 210.534 75.382 211.306 75.382 212.265C75.382 212.873 75.5233 213.411 75.8059 213.878C76.0885 214.37 76.4889 214.744 77.007 215.001C77.5251 215.282 78.1021 215.422 78.738 215.422C79.3975 215.422 79.9745 215.282 80.469 215.001C80.9872 214.744 81.3875 214.37 81.6702 213.878C81.9763 213.411 82.1294 212.873 82.1294 212.265Z" fill="white"/>
<path d="M94.4585 209.248V207.634H92.7629V217.351H94.5292V212.51C94.5292 211.458 94.8118 210.639 95.3771 210.055C95.9187 209.493 96.6724 209.213 97.638 209.213C97.8028 209.213 97.9324 209.224 98.0266 209.248V207.529C97.1787 207.529 96.4486 207.669 95.8363 207.95C95.224 208.254 94.7647 208.686 94.4585 209.248Z" fill="white"/>
<path fill-rule="evenodd" clip-rule="evenodd" d="M114.277 209.914C114.701 210.663 114.913 211.516 114.913 212.475C114.913 213.434 114.701 214.288 114.277 215.036C113.83 215.785 113.229 216.369 112.475 216.79C111.698 217.235 110.827 217.457 109.861 217.457C108.872 217.457 107.989 217.235 107.212 216.79C106.434 216.369 105.834 215.785 105.41 215.036C104.962 214.288 104.739 213.434 104.739 212.475C104.739 211.516 104.962 210.663 105.41 209.914C105.834 209.166 106.434 208.581 107.212 208.16C107.989 207.739 108.872 207.529 109.861 207.529C110.827 207.529 111.698 207.739 112.475 208.16C113.229 208.581 113.83 209.166 114.277 209.914ZM113.147 212.475C113.147 211.797 113.005 211.201 112.723 210.686C112.44 210.171 112.04 209.774 111.522 209.493C111.027 209.213 110.473 209.072 109.861 209.072C109.225 209.072 108.66 209.213 108.165 209.493C107.671 209.774 107.27 210.171 106.964 210.686C106.682 211.201 106.54 211.797 106.54 212.475C106.54 213.153 106.682 213.75 106.964 214.264C107.27 214.779 107.671 215.176 108.165 215.457C108.66 215.761 109.225 215.913 109.861 215.913C110.473 215.913 111.027 215.761 111.522 215.457C112.04 215.176 112.44 214.779 112.723 214.264C113.005 213.75 113.147 213.153 113.147 212.475Z" fill="white"/>
<path d="M130.28 212.651C130.28 213.68 130.009 214.475 129.468 215.036C128.926 215.597 128.184 215.878 127.242 215.878C126.394 215.878 125.747 215.632 125.299 215.141C124.828 214.65 124.593 213.937 124.593 213.001V207.634H122.826V213.212C122.826 214.615 123.203 215.668 123.957 216.369C124.71 217.094 125.735 217.457 127.03 217.457C127.713 217.457 128.349 217.316 128.938 217.036C129.527 216.755 129.998 216.369 130.351 215.878V217.351H132.047V207.634H130.28V212.651Z" fill="white"/>
<path d="M146.177 207.529C145.4 207.529 144.705 207.657 144.093 207.915C143.504 208.195 143.021 208.581 142.645 209.072V207.634H140.949V217.351H142.715V212.335C142.715 211.282 142.998 210.487 143.563 209.949C144.128 209.388 144.882 209.107 145.824 209.107C146.672 209.107 147.331 209.341 147.802 209.809C148.25 210.3 148.474 211.013 148.474 211.949V217.351H150.24V211.738C150.24 210.359 149.875 209.306 149.145 208.581C148.415 207.879 147.426 207.529 146.177 207.529Z" fill="white"/>
<path fill-rule="evenodd" clip-rule="evenodd" d="M166.596 203.74H168.363V217.351H166.667V215.808C166.267 216.346 165.772 216.755 165.183 217.036C164.571 217.316 163.9 217.457 163.17 217.457C162.228 217.457 161.38 217.246 160.626 216.825C159.872 216.404 159.284 215.82 158.86 215.071C158.436 214.323 158.224 213.457 158.224 212.475C158.224 211.493 158.436 210.628 158.86 209.879C159.284 209.131 159.872 208.558 160.626 208.16C161.38 207.739 162.228 207.529 163.17 207.529C163.876 207.529 164.524 207.657 165.113 207.914C165.701 208.172 166.196 208.558 166.596 209.072V203.74ZM166.596 212.51C166.596 211.832 166.455 211.236 166.172 210.721C165.89 210.183 165.501 209.774 165.007 209.493C164.489 209.213 163.923 209.072 163.311 209.072C162.699 209.072 162.133 209.213 161.615 209.493C161.121 209.774 160.732 210.183 160.449 210.721C160.167 211.236 160.026 211.832 160.026 212.51C160.026 213.165 160.167 213.761 160.449 214.299C160.732 214.814 161.121 215.212 161.615 215.492C162.133 215.773 162.699 215.913 163.311 215.913C163.923 215.913 164.489 215.773 165.007 215.492C165.501 215.212 165.89 214.814 166.172 214.299C166.455 213.761 166.596 213.165 166.596 212.51Z" fill="white"/>
</svg>
