<svg width="923" height="305" viewBox="0 0 923 305" fill="none" xmlns="http://www.w3.org/2000/svg">
<path fill-rule="evenodd" clip-rule="evenodd" d="M531.086 3.35279C525.824 6.59088 523.851 8.64999 524.471 10.2587C524.822 11.1694 524.517 11.2876 522.79 10.909C521.194 10.5583 520.371 10.7895 519.403 11.8596C518.158 13.235 518.188 13.3125 520.518 14.737C521.835 15.5424 525.959 17.3646 529.682 18.7862C545.641 24.8802 547.92 25.8543 551.815 28.2528C560.454 33.5721 563.566 38.1165 563.52 45.3454C563.468 53.3812 555.753 63.3046 541.142 74.1281C531.725 81.1045 529.769 82.9565 529.772 84.8997C529.773 85.9349 530.433 86.724 531.734 87.2484C532.812 87.6831 541.839 88.8578 551.793 89.8582C571.766 91.8668 582.248 93.2115 590.327 94.8011C593.266 95.3795 601.12 96.6702 607.781 97.6699C642.341 102.853 686.975 113.629 734.122 128.171C743.853 131.172 744.483 131.609 743.937 134.974C742.379 144.575 741.852 151.81 741.965 162.052C742.231 186.242 744.276 194.754 754.525 214.348C755.549 216.304 758.327 220.124 760.697 222.834C763.068 225.545 765.009 228.187 765.01 228.704C765.012 229.871 765.375 229.918 760.756 228.165C758.435 227.284 755.229 226.693 752.831 226.704C748.407 226.726 747.928 226.391 743.999 220.523C740.497 215.297 735.374 213.847 732.231 217.194C731.312 218.172 730.185 218.972 729.727 218.972C729.268 218.972 728.305 219.622 727.587 220.416C726.869 221.21 724.134 223.273 721.511 225.002C718.888 226.73 716.044 229.03 715.192 230.115C713.83 231.847 713.782 232.134 714.796 232.49C717.477 233.428 722.191 239.096 723.756 243.263C725.206 247.122 725.321 248.342 724.935 255.845C724.535 263.635 724.394 264.253 722.666 265.754C721.318 266.925 719.926 267.355 717.48 267.355C701.346 267.354 682.51 256.261 666.139 237.116C659.857 229.77 648.54 212.289 649.284 211.082C649.514 210.711 651.28 209.607 653.21 208.63C655.139 207.652 656.718 206.398 656.717 205.843C656.716 205.287 654.506 203.353 651.806 201.545C642.688 195.439 638.273 190.771 637.054 185.946C636.502 183.763 636.136 183.795 645.844 185.174C654.907 186.461 658.938 187.482 673.792 192.254C695.529 199.237 709.434 205.239 720.049 212.218L724.941 215.435L729.472 212.976C731.963 211.624 735.363 209.843 737.027 209.02C738.692 208.196 740.052 207.216 740.051 206.843C740.051 206.47 740.704 206.165 741.504 206.165C743.685 206.165 747.133 203.361 746.649 201.983C746.426 201.348 742.832 197.307 738.662 193.002C731.061 185.157 719.455 172.345 706.945 157.989C690.439 139.05 664.564 116.514 653.054 111.05C643.345 106.442 637.714 107.02 626.54 113.771C623.289 115.735 619.347 117.991 617.781 118.785C609.686 122.883 607.513 127.829 606.831 143.712C606.567 149.866 606.177 155.075 605.964 155.287C605.511 155.741 599.944 149.056 589.678 135.726C574.524 116.049 561.35 101.954 554.882 98.4959C552.774 97.3689 549.477 96.3166 547.375 96.1003C543.284 95.6784 539.344 96.9584 528.015 102.389C524.883 103.89 521.948 105.122 521.491 105.124C521.034 105.128 519.385 106.581 517.827 108.353C515.313 111.209 514.854 112.32 513.782 118.136C513.117 121.745 512.361 129.18 512.102 134.658L511.632 144.62L511.074 139.283C510.767 136.348 510.61 129.144 510.725 123.274L510.935 112.602L509.154 112.701C503.915 112.994 498.484 114.778 488.874 119.365C469.582 128.573 463.94 134.219 457.951 150.312C455.037 158.144 454.562 157.652 450.405 142.485C447.039 130.203 432.171 86.3227 430.971 85.1252C430.013 84.1697 425.072 85.259 425.073 86.4252C425.074 87.1893 424.547 87.3402 423.035 87.0086C421.829 86.7439 420.01 86.9937 418.584 87.6191C417.258 88.2011 414.251 89.0969 411.901 89.6106C407.871 90.4914 407.617 90.6715 407.415 92.7683C407.298 93.9914 407.895 96.873 408.742 99.1719C409.59 101.471 410.363 105.273 410.461 107.621C410.568 110.206 411.68 115.058 413.28 119.922C414.732 124.339 415.732 128.259 415.501 128.632C415.271 129.005 412.295 129.289 408.889 129.262C399.553 129.188 363.797 131.97 356.939 133.303C353.653 133.942 353.954 132.799 358.432 127.653C366.126 118.812 371.827 111.183 373.892 106.965C375.056 104.586 376.624 101.669 377.376 100.483C378.128 99.2964 379.269 96.2654 379.911 93.7466C381.479 87.5984 380.988 73.6244 379.026 68.589C377.319 64.2061 373.777 60.0509 370.755 58.8869C369.466 58.3902 365.501 56.5923 361.943 54.8917C358.386 53.1912 353.843 51.4238 351.847 50.9635C348.693 50.237 348.062 50.2812 347.041 51.3029C345.722 52.6227 344.543 52.8419 344.542 51.7675C344.54 50.5622 342.695 50.977 340.587 52.6569C338.412 54.3894 334.58 56.6058 329.73 58.936C325.626 60.9076 325.915 62.6081 330.463 63.2577C334.271 63.802 333.742 63.543 341.565 68.6858C350.849 74.787 352.27 77.4459 352.935 89.9578C353.583 102.142 351.558 109.795 344.67 121.186C340.479 128.119 333.139 137.764 331.688 138.246C329.729 138.896 327.823 137.41 326.549 134.239C325.896 132.616 324.624 130.286 323.721 129.06C322.819 127.834 321.351 125.391 320.461 123.63C318.44 119.633 307.359 103.109 301.613 95.5254C297.119 89.5928 286.992 77.0773 278.297 66.7092C273.765 61.306 270.876 57.3087 267.497 51.7675C265.617 48.6845 263.495 42.2895 262.967 38.1101C262.533 34.6849 262.708 33.5692 264.131 30.6513C266.391 26.0201 271.924 20.5706 277.578 17.4115C283.05 14.3535 285.376 13.4875 298.141 9.75852C303.402 8.22237 308.032 6.63926 308.429 6.24224C309.537 5.1337 300.275 5.34075 294.725 6.54819C292.123 7.11455 287.111 8.12774 283.586 8.80083C262.45 12.8358 242.799 23.7226 238.138 33.9797C237.028 36.4224 236.677 38.6999 236.658 43.5851C236.634 49.7817 236.742 50.2128 239.981 56.9259C241.822 60.7418 243.159 63.8632 242.952 63.8632C242.745 63.8632 236.43 60.0836 228.918 55.4645C200.288 37.8575 190.328 33.1515 175.265 30.1106C170.076 29.0632 168.962 29.0497 164.488 29.9818C161.744 30.5538 156.817 32.349 153.541 33.9719C150.265 35.5942 145.897 37.565 143.835 38.352C138.682 40.3186 136.379 42.4617 134.206 47.3142C131.723 52.8568 131.25 59.6859 132.247 75.6031C133.975 103.211 140.598 129.014 154.163 160.984C155.989 165.289 158.094 170.321 158.841 172.169C162.412 181.001 172.273 199.402 177.174 206.377C188.593 222.63 196.78 231.628 202.616 234.341C207.644 236.678 210.824 236.52 216.865 233.628C225.779 229.362 233.043 226.087 233.595 226.087C234.683 226.087 237.28 222.685 237.988 220.331C239.32 215.907 238.668 205.581 236.085 190.19C234.703 181.954 233.125 173.774 232.579 172.013C231.056 167.097 230.817 165.643 231.468 165.241C232.258 164.752 242.083 171.442 261.268 185.531C280.434 199.607 281.217 200.305 279.218 201.54C278.126 202.215 278.377 204.742 279.536 204.742C280.101 204.742 280.76 204.422 281.002 204.031C281.804 202.732 285.048 203.294 287.316 205.125C288.546 206.118 291.035 208.119 292.846 209.572C294.658 211.024 296.865 212.806 297.751 213.53C298.638 214.254 304.396 218.576 310.549 223.135C324.136 233.202 324.24 233.282 330.312 238.288C332.992 240.497 336.572 243.024 338.267 243.901C341.032 245.332 341.238 245.609 340.263 246.584C339.302 247.546 338.001 247.564 328.985 246.74C316.834 245.63 299.249 246.168 254.71 249.013C232.709 250.418 191.503 250.209 179.401 248.63C148.24 244.564 118.821 236.264 92.5804 224.137C69.4377 213.44 43.928 193.221 32.515 176.527C25.1429 165.745 21.0148 150.629 22.5474 140.027C24.0123 129.893 28.1973 122.964 33.6883 121.582C37.2427 120.688 49.9418 120.492 50.7784 121.318C51.0751 121.611 51.8504 121.884 52.5001 121.924C56.9833 122.199 57.2092 122.251 56.3346 122.806C55.6735 123.225 55.9105 123.604 57.2011 124.191C58.3137 124.697 59.1356 124.744 59.4 124.315C59.6324 123.938 59.2431 123.604 58.5344 123.574C57.8256 123.543 57.6231 123.364 58.0837 123.176C59.5359 122.584 69.4224 127.138 75.5711 131.23C88.2578 139.675 101.986 152.202 108.457 161.24C112.742 167.227 109.871 165.126 103.662 157.732C98.29 151.335 94.3068 147.474 95.8261 150.136C96.1731 150.744 98.2226 153.121 100.38 155.417C104.712 160.027 105.028 160.439 111.015 169.29C118.261 179.999 126.047 197.663 129.151 210.434C129.959 213.761 130.926 216.883 131.3 217.371C132.853 219.405 135.034 217.995 143.958 209.189L153.153 200.117L153.145 196.666C153.136 192.277 147.723 175.695 143.037 165.704C135.831 150.337 124.49 135.964 109.953 123.774C97.5597 113.384 86.6939 107.341 75.617 104.679C69.3414 103.171 58.6684 103.19 52.2345 104.72C45.7082 106.273 35.4878 111.343 30.05 115.724C27.6638 117.648 23.4628 120.702 20.7145 122.513C10.9198 128.964 3.58763 138.706 1.27094 148.346C0.823324 150.21 0.480957 155.097 0.510038 159.206C0.581367 169.252 2.3817 175.9 7.12582 183.638C9.91976 188.195 10.6629 189.992 10.3201 191.362C9.95524 192.823 10.6935 194.168 14.3843 198.765C28.0256 215.754 49.3065 232.217 72.6784 243.86C91.7362 253.353 122.959 263.508 143.623 266.932C164.153 270.334 189.971 271.338 222.687 270.006C234.75 269.515 239.684 269.115 252.598 267.585C254.557 267.352 257.041 267.16 258.118 267.157C259.195 267.154 260.076 266.899 260.075 266.591C260.075 266.284 260.957 266.279 262.034 266.582C263.147 266.895 265.839 266.755 268.266 266.259C270.62 265.778 273.036 265.646 273.646 265.966C274.255 266.284 275.116 266.32 275.56 266.046C276.004 265.772 277.51 265.601 278.908 265.667C280.305 265.732 281.608 265.527 281.804 265.21C281.999 264.893 283.119 264.785 284.293 264.97C285.65 265.184 286.427 264.999 286.426 264.465C286.425 263.821 286.661 263.819 287.431 264.456C288.122 265.029 289.847 265.127 292.951 264.769C306.891 263.161 341.986 264.02 352.311 266.221C362.481 268.389 371.512 272.362 378.555 277.767L382.708 280.955L387.29 279.431C389.926 278.554 392.181 277.328 392.6 276.544C393.146 275.523 394.103 275.182 396.421 275.182C398.291 275.182 399.862 274.763 400.393 274.122C400.876 273.54 401.542 273.23 401.875 273.435C402.206 273.639 403.051 273.495 403.752 273.114C404.453 272.733 405.907 272.236 406.985 272.009C408.062 271.783 408.942 271.228 408.942 270.777C408.939 268.891 396.784 259.038 390.538 255.859C389.122 255.138 388.192 254.548 388.472 254.548C389.256 254.548 384.623 250.618 373.012 241.435C367.173 236.818 360.114 230.836 357.325 228.143C354.535 225.45 352.062 223.245 351.83 223.244C351.597 223.243 350.474 222.425 349.335 221.428L347.262 219.614L350.974 221.05C358.587 223.996 406.249 248.307 423.525 258.057C427.838 260.491 434.975 264.258 439.384 266.428L447.403 270.373L450.952 266.651C452.91 264.597 454.921 263.09 455.439 263.288C455.955 263.486 456.939 265.655 457.625 268.11C459.014 273.076 461.184 276.605 462.848 276.605C463.449 276.605 465.366 275.644 467.105 274.47C468.845 273.296 470.539 272.336 470.869 272.336C471.199 272.336 471.635 271.901 471.839 271.369C472.043 270.838 473.164 270.213 474.332 269.979C476.558 269.534 485.055 264.363 485.996 262.88C486.8 261.615 486.668 251.052 485.754 243.6C485.317 240.034 483.841 230.872 482.473 223.241C476.854 191.882 476.95 192.711 476.896 175.215C476.851 160.722 477.021 158.158 478.378 152.802C479.22 149.476 480.376 145.646 480.947 144.292L481.983 141.83L482.436 146.783C483.703 160.644 485.371 168.211 489.052 176.805L491.561 182.663L490.084 186.947C488.972 190.168 488.612 192.947 488.632 198.164C488.664 206.25 489.384 209.864 492.037 215.264C494.003 219.263 503.087 229.664 504.576 229.622C505.656 229.59 508.597 227.116 508.596 226.24C508.596 225.863 509.476 225.366 510.553 225.137C511.631 224.907 513.613 223.987 514.96 223.091C516.307 222.196 518.548 220.821 519.942 220.036C521.421 219.203 522.566 217.961 522.696 217.049C522.964 215.144 521.582 212.371 520.651 212.947C520.279 213.176 519.974 212.883 519.973 212.293C519.973 211.704 518.88 209.364 517.547 207.093C513.987 201.033 511.529 190.704 512.83 187.274C514.181 183.714 515.05 185.069 519.013 196.916C527.922 223.548 546.408 248.169 569.188 263.741C580.851 271.712 589.582 275.182 597.981 275.182C604.353 275.182 605.639 274.743 613 270.051C628.398 260.237 628.301 260.312 628.298 258.42C628.297 257.425 628.816 255.604 629.451 254.372C631.048 251.28 630.469 241.154 628.441 236.727C626.717 232.964 623.697 229.645 621.995 229.645C621.325 229.645 619.176 230.791 617.22 232.192C615.265 233.592 611.506 236.194 608.868 237.974C606.229 239.754 603.228 241.991 602.199 242.946L600.326 244.681L602.146 246.591C603.147 247.641 604.631 250.191 605.445 252.258C606.739 255.545 606.788 256.069 605.833 256.435C602.594 257.677 585.703 245.6 573.416 233.255C566.41 226.218 558.197 215.153 551.884 204.247C547.446 196.58 546.578 194.07 548.365 194.07C552.761 194.07 615.578 212.187 618.101 214.183C618.598 214.577 620.315 217.656 621.916 221.027C623.517 224.397 625.537 228.115 626.404 229.289C627.271 230.463 629.875 234.614 632.191 238.514C640.094 251.826 654.79 268.32 664.311 274.566C675.365 281.816 686.543 285.854 695.555 285.854C703.295 285.854 711.986 282.745 718.424 277.672C719.989 276.439 724.957 272.842 729.464 269.679C740.717 261.781 744.552 257.807 746.923 251.584C747.966 248.85 749.203 246.465 749.673 246.285C751.673 245.518 777.538 256.653 802.269 268.927C811.573 273.545 821.676 278.308 824.719 279.513C827.763 280.717 833.395 283.286 837.236 285.22L844.218 288.737L847.388 287.336C849.181 286.543 850.557 285.454 850.556 284.827C850.555 284.218 851.085 283.72 851.733 283.72C853.691 283.72 865.967 277.371 868.9 274.842C869.652 274.193 867.649 271.999 864.877 270.432C861.345 268.437 847.626 259.741 837.693 253.201C818.832 240.784 799.702 224.156 787.672 209.723C777.376 197.37 771.377 184.798 768.864 170.307C767.511 162.501 766.654 142.171 767.619 140.779C768.189 139.957 769.903 140.378 777.466 143.197C790.286 147.974 825.288 161.381 837.218 166.084C842.706 168.247 851.845 171.796 857.528 173.972C863.211 176.147 871.549 179.343 876.056 181.072C887.691 185.536 894.546 187.643 897.482 187.655C899.991 187.666 905.425 184.374 909.253 180.525C910.078 179.695 912.205 178.321 913.98 177.471C915.756 176.621 918.503 174.832 920.087 173.496C922.844 171.169 922.925 170.985 921.98 169.165C921.437 168.12 919.771 166.346 918.278 165.223C911.848 160.387 890.45 142.304 880.265 133.1C850.286 106.004 825.483 76.1816 814.105 53.5463C810.401 46.1793 805.28 31.974 805.364 29.3023C805.4 28.1575 805.204 25.86 804.928 24.1965C804.315 20.5009 802.781 20.2248 798.987 23.1292C797.582 24.205 794.67 26.2314 792.516 27.6309C790.363 29.0312 788.175 30.6961 787.654 31.3308C787.134 31.9662 785.314 33.1601 783.61 33.9847C780.096 35.6852 779.474 37.2499 779.579 44.1302C779.747 55.086 789.168 75.7191 802.073 93.3909C805.163 97.6229 814.888 109.706 816.102 110.823C816.315 111.019 819.045 114.06 822.168 117.582C825.293 121.104 831.369 127.583 835.671 131.98C839.974 136.377 843.274 140.195 843.005 140.464C842.735 140.734 840.353 140.047 837.71 138.94C835.068 137.832 831.177 136.336 829.064 135.617C826.951 134.898 821.606 132.865 817.186 131.099C812.766 129.334 800.706 124.877 790.385 121.196C768.761 113.483 770.652 115.265 771.889 103.76C772.707 96.1536 772.156 92.6644 769.801 90.5384C768.207 89.0997 768.877 88.877 759.841 93.8469C756.905 95.4614 753.011 97.8392 751.187 99.1313C742.791 105.077 741.176 105.305 730.65 102.036C715.865 97.445 685.722 90.1862 661.183 85.3088C645.247 82.1412 645.006 82.0999 642.173 82.0857C640.73 82.0785 639.676 81.8687 639.83 81.6189C639.984 81.3699 636.195 80.4855 631.411 79.6544C615.819 76.9464 613.53 76.6618 612.847 77.3449C612.446 77.7462 611.792 77.6046 611.167 76.9806C610.603 76.4185 609.07 75.9588 607.758 75.9588C606.448 75.9588 604.815 75.7447 604.131 75.4821C603.282 75.157 603.051 75.2701 603.403 75.8379C603.687 76.2961 603.598 76.6704 603.207 76.6704C602.815 76.6704 602.274 76.3146 602.005 75.8806C601.723 75.4259 600.53 75.2502 599.197 75.4665C597.923 75.6728 596.6 75.5704 596.26 75.2381C595.92 74.9058 593.478 74.5323 590.835 74.407C588.191 74.2825 586.027 73.9737 586.026 73.7219C586.025 73.4693 585.302 73.2658 584.421 73.2686C583.54 73.2715 582.047 73.0267 581.104 72.7257C580.111 72.4077 579.559 72.449 579.792 72.8225C580.526 74.0001 567.993 73.1213 566.636 71.9004C565.74 71.095 564.386 70.8829 561.606 71.1135C558.159 71.3988 556.106 70.6972 556.104 69.2322C556.104 69.0216 560.666 65.2193 566.242 60.783C586.51 44.6588 591.36 36.2395 586.396 25.7974C582.468 17.5353 571.522 11.1282 548.008 3.32789C537.952 -0.0083824 536.545 -0.00624531 531.086 3.35279ZM565.862 32.2451C565.624 32.4834 565.044 31.9306 564.573 31.017C563.756 29.4282 563.775 29.409 565.007 30.583C565.716 31.2589 566.101 32.0067 565.862 32.2451ZM561.769 34.3526C563.08 35.9286 562.335 36.11 560.865 34.5724C560.178 33.8552 559.898 33.2682 560.242 33.2682C560.585 33.2682 561.272 33.7563 561.769 34.3526ZM245.875 36.8258C245.609 37.6675 245.23 38.1962 245.034 38.0005C244.838 37.8048 244.895 36.956 245.161 36.1143C245.427 35.2726 245.806 34.7439 246.002 34.9396C246.199 35.1352 246.141 35.9841 245.875 36.8258ZM256.113 40.3229C256.176 44.3906 256.866 47.021 259.346 52.6569C261.372 57.2604 259.823 55.5577 257.515 50.6433C255.207 45.7332 254.294 41.0031 255.061 37.9357C255.766 35.116 256.043 35.7443 256.113 40.3229ZM259.994 43.2294C260.408 46.4127 260.405 46.4191 259.41 44.2966C258.322 41.9729 257.927 37.0762 258.981 38.9603C259.309 39.5473 259.765 41.4684 259.994 43.2294ZM168.34 47.8371C176.999 50.9941 205.228 67.6648 225.28 81.4602C226.848 82.5396 229.376 84.1498 230.898 85.0384C232.419 85.9271 235.146 87.8688 236.958 89.3523C238.769 90.8365 242.979 93.9238 246.311 96.2141C252.617 100.547 257.081 104.028 262.974 109.207C264.883 110.885 267.516 112.767 268.825 113.386C273.224 115.47 298.626 141.347 298.235 143.346C298.08 144.138 296.227 144.839 291.963 145.72C285.081 147.141 280.064 149.233 272.447 153.856C269.533 155.625 266.668 157.071 266.079 157.071C265.491 157.071 260.415 153.629 254.799 149.422C249.183 145.215 242.343 140.183 239.599 138.238C232.086 132.912 213.125 118.213 207.874 113.643C199.724 106.552 192.741 100.862 192.187 100.862C191.085 100.862 186.492 103.035 186.492 103.555C186.493 103.853 185.396 104.686 184.056 105.408C182.546 106.22 181.763 107.094 181.999 107.704C182.207 108.245 181.986 108.688 181.507 108.688C181.028 108.688 181.822 109.998 183.27 111.598C184.72 113.198 185.742 114.67 185.543 114.869C185.344 115.068 183.67 114.079 181.822 112.671C177.812 109.617 176.406 109.509 172.831 111.987C169.054 114.604 169.182 116.726 173.363 120.82C177.628 124.998 193.522 148.245 194.756 152.113C195.015 152.924 196.289 155.461 197.587 157.75C198.885 160.039 200.347 163.143 200.834 164.649C201.322 166.156 201.943 167.708 202.214 168.099C202.484 168.491 203.123 170.252 203.632 172.013C204.142 173.774 204.848 175.855 205.2 176.638C206.417 179.332 209.397 195.143 209.408 198.959C209.422 203.72 208.871 203.376 203.454 195.241C192.442 178.7 189.727 173.377 178.186 145.687C172.775 132.703 170.959 128.217 169.113 123.274C168.821 122.492 168.326 121.211 168.014 120.428C166.595 116.874 162.99 105.034 162.988 103.923C162.988 103.244 162.516 101.397 161.941 99.8179C161.366 98.2398 159.844 90.5448 158.557 82.7182C156.638 71.0366 156.213 66.4709 156.182 57.2262C156.147 47.0701 156.273 45.8691 157.461 44.9989C158.572 44.1857 159.132 44.1871 161.022 45.0096C162.257 45.5468 165.55 46.8189 168.34 47.8371ZM199.243 51.7675C199.831 52.1467 199.991 52.457 199.6 52.457C199.208 52.457 198.406 52.1467 197.818 51.7675C197.23 51.3883 197.069 51.0781 197.461 51.0781C197.853 51.0781 198.654 51.3883 199.243 51.7675ZM212.13 59.338C212.749 59.8702 213.496 60.3056 213.791 60.3056C214.382 60.3056 236.954 75.0111 238.093 76.1389C239.397 77.4295 235.333 75.0759 227.401 69.9473C212.171 60.0993 210.249 58.8869 205.837 56.3461C203.387 54.9344 201.382 53.6196 201.382 53.4239C201.381 52.965 210.649 58.0644 212.13 59.338ZM362.802 56.8C366.492 58.9068 367.649 60.3056 365.703 60.3056C365.191 60.3056 363.686 59.5052 362.357 58.5268C361.028 57.5485 359.603 56.7381 359.189 56.7253C358.776 56.7132 357.814 56.2329 357.053 55.658C354.314 53.5904 358.712 54.4641 362.802 56.8ZM340.003 62.4836C345.627 65.6953 345.312 66.2055 339.232 63.733C336.284 62.5341 333.871 61.2726 333.87 60.9296C333.869 59.7279 336.222 60.3241 340.003 62.4836ZM143.654 77.0261C144.099 82.5047 144.663 88.4281 144.907 90.1891C145.151 91.95 145.151 93.2059 144.907 92.9803C144.35 92.4645 142.286 74.6603 141.904 67.065C141.453 58.1355 142.688 65.1645 143.654 77.0261ZM820.62 68.525C820.864 69.1582 820.745 69.4435 820.341 69.1945C819.953 68.9554 819.636 68.4588 819.635 68.0903C819.634 67.0671 820.145 67.2927 820.62 68.525ZM826.634 78.4676C826.415 78.6868 826.017 78.2919 825.748 77.5903C825.36 76.5764 825.442 76.4946 826.146 77.1919C826.634 77.675 826.853 78.2492 826.634 78.4676ZM832.522 85.2085C844.222 99.6856 862.986 119.89 874.407 130.308C878.219 133.786 888.98 142.991 898.319 150.764C915.527 165.086 919.505 169.096 907.29 159.804C883.9 142.014 861.526 121.255 844.881 101.901C837.086 92.8373 828.2 81.4403 828.199 80.5026C828.198 79.865 828.243 79.9134 832.522 85.2085ZM146.359 98.9051C146.163 99.3946 146 98.994 145.999 98.0157C145.998 97.0373 146.159 96.6375 146.357 97.1263C146.555 97.6158 146.556 98.4162 146.359 98.9051ZM147.099 102.805C146.919 103.497 146.759 103.103 146.743 101.929C146.727 100.755 146.874 100.189 147.07 100.67C147.265 101.152 147.279 102.113 147.099 102.805ZM727.609 102.714C727.373 102.951 726.758 102.976 726.244 102.771C725.676 102.544 725.844 102.375 726.674 102.341C727.425 102.31 727.845 102.478 727.609 102.714ZM147.808 105.976C147.582 106.543 147.413 106.374 147.377 105.546C147.346 104.796 147.513 104.376 147.75 104.612C147.987 104.848 148.013 105.462 147.808 105.976ZM735.279 105.123C735.529 105.526 735.243 105.645 734.609 105.403C733.375 104.929 733.148 104.419 734.172 104.419C734.541 104.419 735.039 104.736 735.279 105.123ZM149.941 113.847C149.744 114.336 149.582 113.936 149.581 112.957C149.579 111.979 149.74 111.579 149.938 112.068C150.137 112.558 150.138 113.358 149.941 113.847ZM70.3397 116.108C85.1921 121.227 101.372 133.637 114.67 150.112C121.238 158.249 123.485 162.145 118.068 156.004C95.7527 130.705 77.3723 118.037 57.5895 114.322C54.9371 113.824 55.3052 113.769 59.7258 114.005C62.9183 114.176 67.1894 115.022 70.3397 116.108ZM150.672 116.649C150.445 117.216 150.276 117.047 150.241 116.218C150.209 115.468 150.377 115.049 150.614 115.285C150.85 115.521 150.877 116.135 150.672 116.649ZM539.79 118.879C543.712 122.417 552.744 133.037 559.561 142.129C563.522 147.412 570.245 155.859 574.5 160.899C578.756 165.939 583.041 171.116 584.022 172.403C588.647 178.47 593.489 184.108 594.074 184.108C594.43 184.108 594.722 184.464 594.723 184.899C594.724 185.956 593.335 185.674 568.006 179.469C556.25 176.59 545.411 174.015 543.919 173.748C538.596 172.795 537.043 167.363 536.474 147.709C536.072 133.813 536.655 117.206 537.543 117.249C537.798 117.261 538.809 117.995 539.79 118.879ZM783.173 120.05C784.822 120.474 786.342 121.098 786.55 121.434C786.759 121.771 788.135 122.283 789.609 122.573C791.083 122.864 791.929 123.233 791.491 123.394C791.052 123.555 789.289 123.178 787.572 122.556C785.856 121.934 782.928 120.948 781.067 120.366C779.205 119.783 777.682 119.137 777.681 118.93C777.681 118.723 778.242 118.716 778.928 118.915C779.614 119.113 781.524 119.624 783.173 120.05ZM156.202 131.812C156.735 133.378 158.377 137.54 159.85 141.062C162.383 147.115 164.384 152.132 167.999 161.499C170.143 167.054 180.967 188.621 183.812 193.002C185.081 194.959 186.947 197.841 187.958 199.406C191.067 204.221 195.978 210.512 201.567 216.838C207.16 223.168 206.578 223.422 200.662 217.234C187.806 203.787 173.906 179.753 162.369 151.023C157.921 139.947 152.318 123.853 152.38 122.332C152.424 121.246 153.601 124.167 156.202 131.812ZM635.637 127.278C642.361 131.521 653.984 141.645 668.984 156.323C679.067 166.188 687.106 175.291 686.379 176.019C686.155 176.243 684.428 175.929 682.541 175.32C674.775 172.814 649.31 169.167 639.577 169.167C635.431 169.167 633.103 168.868 632.639 168.277C631.983 167.441 630.852 159.951 629.926 150.312C629.293 143.732 630.301 125.053 631.289 125.053C631.741 125.053 633.698 126.054 635.637 127.278ZM808.678 129.322C809.577 129.708 809.709 129.933 809.035 129.933C808.448 129.933 807.326 129.659 806.542 129.322C805.643 128.936 805.512 128.711 806.185 128.711C806.772 128.711 807.895 128.986 808.678 129.322ZM70.0816 130.044C70.6926 131.03 76.1358 133.756 76.1277 133.072C76.122 132.536 70.9289 129.322 70.0692 129.322C69.8299 129.322 69.8353 129.647 70.0816 130.044ZM815.449 132.168C816.752 133.008 815.627 133.008 813.668 132.168C812.728 131.765 812.607 131.543 813.311 131.518C813.899 131.496 814.861 131.789 815.449 132.168ZM828.763 137.195C833.003 138.786 837.501 140.399 838.761 140.779C840.02 141.16 841.276 141.833 841.551 142.277C841.894 142.83 841.623 142.914 840.686 142.544C839.936 142.248 836.436 140.935 832.909 139.625C823.382 136.087 819.267 134.373 820.212 134.336C820.675 134.318 824.523 135.604 828.763 137.195ZM81.5417 137.926C82.2843 138.745 83.4501 139.713 84.1315 140.077C86.0425 141.098 84.9512 138.908 82.871 137.547C80.5078 136.002 79.9418 136.163 81.5417 137.926ZM402.344 137.682C402.341 137.976 396.973 138.244 390.415 138.277C382.099 138.32 380.108 138.198 383.832 137.874C391.779 137.183 402.351 137.073 402.344 137.682ZM86.8289 141.687C86.8291 141.834 87.3177 142.36 87.9152 142.854C88.8229 143.606 88.9276 143.562 88.5509 142.585C88.1664 141.589 86.8278 140.889 86.8289 141.687ZM228.884 146.748C231.456 148.507 238.454 153.725 244.436 158.345C250.417 162.965 258.979 169.247 263.463 172.304C273.639 179.241 284.11 187.04 285.904 189.018C288.142 191.486 286.771 191.404 283.408 188.869C281.68 187.566 278.02 184.939 275.275 183.03C272.531 181.121 265.633 176.329 259.948 172.38C242.035 159.938 222.161 144.945 222.16 143.873C222.158 142.828 224.799 143.957 228.884 146.748ZM90.3943 144.727C90.3948 145.118 91.1975 146.191 92.1781 147.11C93.1587 148.029 93.9606 148.461 93.9601 148.07C93.9595 147.678 93.1568 146.606 92.1762 145.687C91.1956 144.768 90.3937 144.336 90.3943 144.727ZM209.697 153.324C215.13 164.445 219.837 180.474 221.484 193.452C222.367 200.413 222.368 205.626 221.485 199.762C218.465 179.708 215.107 167.869 208.662 154.567C206.293 149.677 204.355 145.48 204.355 145.239C204.353 143.7 206.823 147.437 209.697 153.324ZM426.272 162.839C427.96 167.689 431.605 177.781 434.37 185.266C440.099 200.765 445.857 219.684 444.846 219.684C444.131 219.684 439.194 211.472 425.38 187.31C417.772 174.005 410.878 162.404 410.059 161.532C408.959 160.36 408.086 160.059 406.722 160.38C404.751 160.844 401.673 163.287 401.675 164.385C401.676 165.091 399.041 168.573 396.694 170.97C395.913 171.767 395.276 172.807 395.276 173.283C395.277 173.758 394.961 174.147 394.575 174.147C394.189 174.147 393.016 175.444 391.968 177.03L390.063 179.912L391.244 183.611C391.894 185.645 394.076 190.032 396.094 193.358C406.229 210.066 410.527 217.919 410.154 219.041C410.032 219.409 402.397 216.049 393.187 211.575C374.724 202.605 355.812 194.781 352.592 194.781C351.45 194.781 348.332 194.003 345.664 193.052C335.304 189.36 328.247 187.677 317.025 186.223C311.609 185.521 309.822 184.698 309.819 182.902C309.819 182.334 312.396 179.092 315.547 175.696C318.697 172.301 322.788 167.884 324.636 165.881C328.515 161.679 332.514 159.425 337.772 158.478C341.715 157.768 363.345 156.367 376.378 155.979C389.564 155.585 408.792 154.455 409.196 154.049C409.295 153.95 412.487 153.903 416.289 153.945L423.201 154.02L426.272 162.839ZM295.366 160.808C311.214 160.652 313.351 160.762 313.352 161.734C313.353 162.341 311.193 165.186 308.553 168.057C305.913 170.927 302.454 174.753 300.868 176.558C299.281 178.362 297.451 179.839 296.8 179.839C296.15 179.839 293.981 178.389 291.98 176.615C289.979 174.842 287 172.529 285.361 171.475C280.235 168.178 271.329 161.305 271.328 160.646C271.326 159.669 274.367 159.4 275.957 160.235C276.873 160.717 283.805 160.921 295.366 160.808ZM521.114 163.995C520.934 164.687 520.774 164.293 520.758 163.119C520.742 161.945 520.889 161.378 521.084 161.86C521.28 162.342 521.294 163.302 521.114 163.995ZM15.2696 174.147C19.7666 186.049 34.2756 202.697 51.3565 215.553C79.8265 236.981 125.404 254.399 165.692 259.248C173.329 260.167 173.375 260.183 167.474 259.868C160.601 259.501 143.893 256.812 134.347 254.537C107.717 248.192 81.7719 237.196 59.161 222.671C35.1672 207.257 17.4816 187.068 12.0117 168.844C10.7596 164.674 13.1774 168.609 15.2696 174.147ZM330.84 189.8C331.083 190.192 330.961 190.512 330.569 190.512C330.177 190.512 329.658 190.192 329.416 189.8C329.173 189.409 329.295 189.089 329.687 189.089C330.079 189.089 330.597 189.409 330.84 189.8ZM336.74 191.348C340.179 192.212 344.308 194.057 342.822 194.065C342.358 194.067 341.076 193.711 339.972 193.272C338.869 192.834 336.523 192.062 334.76 191.557C330.708 190.397 332.292 190.23 336.74 191.348ZM314.512 210.948C316.023 212.209 317.111 213.39 316.928 213.573C316.459 214.043 308.542 208.144 308.083 206.981C307.624 205.819 310.47 207.576 314.512 210.948ZM320.548 215.82C320.548 216.016 319.907 215.834 319.123 215.415C318.339 214.996 317.697 214.493 317.697 214.298C317.697 214.102 318.338 214.284 319.122 214.703C319.906 215.122 320.548 215.625 320.548 215.82ZM779.997 232.313C780.916 233.194 781.469 233.914 781.228 233.914C780.615 233.914 775.694 229.228 775.694 228.644C775.693 228.381 776.286 228.739 777.01 229.439C777.735 230.14 779.078 231.432 779.997 232.313ZM609.046 242.452C609.046 242.844 608.906 243.164 608.733 243.164C608.559 243.164 608.22 242.844 607.977 242.452C607.735 242.061 607.876 241.741 608.29 241.741C608.705 241.741 609.045 242.061 609.046 242.452ZM630.486 254.963C630.522 255.792 630.691 255.96 630.917 255.393C631.122 254.879 631.096 254.265 630.859 254.029C630.622 253.793 630.455 254.213 630.486 254.963ZM326.123 256.497C323.87 256.638 320.185 256.638 317.932 256.497C315.679 256.356 317.522 256.24 322.027 256.24C326.532 256.24 328.376 256.356 326.123 256.497ZM341.778 257.112C341.542 257.348 340.928 257.374 340.414 257.168C339.845 256.941 340.014 256.773 340.843 256.739C341.594 256.708 342.015 256.876 341.778 257.112ZM528.258 281.285C526.299 281.428 519.249 281.891 512.59 282.313C492.755 283.571 476.77 285.795 463.454 289.15C455.407 291.177 453.541 291.963 445.979 296.504C443.025 298.277 439.385 300.359 437.891 301.13C435.292 302.47 434.023 303.987 434.828 304.79C435.035 304.996 437.237 304.374 439.722 303.407C455.561 297.242 466.848 295.546 500.281 294.306C547.406 292.56 585.757 294.751 616.449 300.944C629.47 303.571 629.817 303.535 641.173 298.356C644.892 296.661 648.503 295.082 649.197 294.849C651.099 294.21 651.509 292.332 649.989 291.223C647.941 289.728 638.802 287.469 629.76 286.224C625.255 285.602 619.484 284.778 616.937 284.391C604.43 282.491 587.017 281.538 560.309 281.289C544.639 281.143 530.216 281.141 528.258 281.285Z" fill="#505050"/>
</svg>
