<svg width="1459" height="481" viewBox="0 0 1459 481" fill="none" xmlns="http://www.w3.org/2000/svg">
<path fill-rule="evenodd" clip-rule="evenodd" d="M839.9 4.10388C831.58 9.21664 828.462 12.4679 829.442 15.008C829.997 16.446 829.516 16.6324 826.784 16.0348C824.26 15.4809 822.958 15.846 821.428 17.5357C819.46 19.7073 819.508 19.8298 823.192 22.0789C825.275 23.3506 831.796 26.2277 837.685 28.4724C862.922 38.0946 866.526 39.6326 872.686 43.4197C886.349 51.8185 891.272 58.9939 891.2 70.408C891.122 83.0961 878.924 98.7647 855.821 115.854C840.931 126.87 837.839 129.794 837.844 132.862C837.847 134.497 838.889 135.743 840.947 136.571C842.652 137.257 856.927 139.112 872.668 140.691C904.253 143.863 920.828 145.986 933.605 148.496C938.252 149.409 950.673 151.447 961.206 153.026C1015.86 161.21 1086.44 178.224 1161 201.185C1176.39 205.924 1177.39 206.614 1176.53 211.927C1174.06 227.087 1173.23 238.51 1173.41 254.681C1173.84 292.877 1177.08 306.316 1193.29 337.253C1194.91 340.343 1199.3 346.374 1203.05 350.654C1206.8 354.934 1209.87 359.105 1209.87 359.922C1209.88 361.765 1210.45 361.838 1203.15 359.071C1199.48 357.68 1194.41 356.746 1190.61 356.764C1183.62 356.798 1182.86 356.269 1176.65 347.005C1171.11 338.752 1163.01 336.463 1158.04 341.747C1156.58 343.292 1154.8 344.556 1154.08 344.556C1153.35 344.556 1151.83 345.582 1150.69 346.835C1149.56 348.089 1145.23 351.347 1141.09 354.076C1136.94 356.805 1132.44 360.437 1131.1 362.149C1128.94 364.884 1128.87 365.337 1130.47 365.899C1134.71 367.381 1142.17 376.33 1144.64 382.909C1146.94 389.002 1147.12 390.929 1146.51 402.776C1145.88 415.075 1145.66 416.051 1142.92 418.422C1140.79 420.271 1138.59 420.95 1134.72 420.95C1109.21 420.948 1079.42 403.432 1053.53 373.203C1043.59 361.604 1025.69 334.003 1026.87 332.098C1027.23 331.512 1030.02 329.769 1033.07 328.226C1036.13 326.682 1038.62 324.701 1038.62 323.825C1038.62 322.948 1035.12 319.894 1030.85 317.039C1016.43 307.398 1009.45 300.027 1007.52 292.409C1006.65 288.961 1006.07 289.013 1021.42 291.189C1035.75 293.221 1042.13 294.834 1065.62 302.369C1099.99 313.395 1121.98 322.871 1138.77 333.891L1146.51 338.97L1153.67 335.087C1157.61 332.953 1162.99 330.141 1165.62 328.841C1168.25 327.54 1170.4 325.993 1170.4 325.405C1170.4 324.816 1171.43 324.334 1172.7 324.334C1176.15 324.334 1181.6 319.906 1180.83 317.73C1180.48 316.728 1174.79 310.347 1168.2 303.55C1156.18 291.163 1137.82 270.934 1118.03 248.266C1091.93 218.362 1051.01 182.779 1032.8 174.152C1017.45 166.876 1008.54 167.789 990.876 178.448C985.735 181.55 979.501 185.112 977.026 186.365C964.226 192.836 960.791 200.646 959.717 225.724C959.3 235.441 958.685 243.666 958.349 244C957.632 244.717 948.827 234.161 932.589 213.114C908.62 182.045 887.784 159.79 877.555 154.33C874.221 152.55 869.007 150.889 865.683 150.547C859.215 149.881 852.984 151.902 835.07 160.477C830.118 162.847 825.476 164.791 824.754 164.796C824.032 164.801 821.425 167.095 818.96 169.894C814.987 174.403 814.261 176.157 812.567 185.341C811.516 191.038 810.323 202.778 809.915 211.429L809.175 227.157L808.29 218.731C807.804 214.097 807.554 202.722 807.734 193.454L808.063 176.602L805.248 176.759C796.963 177.221 788.375 180.039 773.18 187.28C742.674 201.82 733.754 210.735 724.288 236.144C719.681 248.511 718.931 247.735 712.352 223.786C707.026 204.394 683.504 135.109 681.606 133.218C680.091 131.709 672.277 133.429 672.279 135.271C672.281 136.477 671.447 136.715 669.056 136.192C667.15 135.774 664.273 136.168 662.018 137.156C659.921 138.075 655.166 139.489 651.45 140.3C645.079 141.691 644.676 141.975 644.358 145.286C644.172 147.217 645.118 151.767 646.458 155.397C647.799 159.027 649.023 165.031 649.178 168.738C649.349 172.819 651.107 180.481 653.639 188.16C655.937 195.135 657.52 201.324 657.155 201.913C656.79 202.503 652.084 202.951 646.698 202.908C631.934 202.792 575.393 207.183 564.548 209.288C559.351 210.297 559.828 208.492 566.908 200.367C579.073 186.407 588.085 174.362 591.349 167.702C593.189 163.946 595.668 159.34 596.857 157.468C598.046 155.594 599.85 150.808 600.864 146.831C603.343 137.123 602.562 115.059 599.459 107.108C596.757 100.188 591.155 93.6272 586.377 91.7892C584.338 91.0051 578.067 88.1662 572.441 85.4812C566.816 82.7961 559.631 80.0055 556.474 79.2787C551.487 78.1316 550.49 78.2013 548.875 79.8145C546.789 81.8985 544.925 82.2445 544.922 80.5481C544.92 78.645 542.002 79.3 538.669 81.9524C535.23 84.688 529.171 88.1875 521.502 91.8668C515.013 94.9798 515.47 97.6648 522.662 98.6905C528.684 99.55 527.848 99.141 540.22 107.261C554.902 116.895 557.15 121.093 558.205 140.849C559.233 160.087 556.033 172.171 545.144 190.156C538.519 201.103 526.913 216.332 524.618 217.093C521.521 218.12 518.507 215.773 516.491 210.767C515.459 208.204 513.446 204.525 512.019 202.589C510.591 200.654 508.269 196.796 506.862 194.015C503.665 187.704 486.137 161.614 477.049 149.64C469.94 140.272 453.923 120.511 440.171 104.14C433.003 95.6089 428.433 89.2975 423.088 80.5481C420.114 75.6803 416.758 65.5828 415.921 58.9838C415.235 53.5755 415.51 51.814 417.76 47.2068C421.332 39.8943 430.08 31.2899 439.02 26.3019C447.673 21.4733 451.352 20.1061 471.537 14.2182C479.855 11.7927 487.176 9.29303 487.803 8.66615C489.555 6.91584 474.909 7.24276 466.133 9.14923C462.018 10.0435 454.093 11.6433 448.519 12.706C415.096 19.077 384.025 36.2668 376.657 52.4622C374.902 56.319 374.348 59.9151 374.319 67.6286C374.283 77.4126 374.453 78.0934 379.577 88.6931C382.489 94.718 384.604 99.6466 384.277 99.6466C383.949 99.6466 373.962 93.6789 362.083 86.3855C316.804 58.5849 301.053 51.1545 277.232 46.353C269.027 44.6993 267.265 44.6779 260.19 46.1496C255.85 47.0529 248.06 49.8873 242.88 52.4499C237.699 55.0113 230.793 58.1232 227.533 59.3657C219.384 62.4709 215.743 65.8547 212.308 73.5165C208.383 82.2681 207.637 93.0509 209.218 118.183C211.957 161.775 222.437 202.516 243.896 252.996C246.786 259.793 250.116 267.739 251.297 270.655C256.947 284.601 272.544 313.655 280.297 324.669C298.358 350.33 311.308 364.538 320.536 368.822C328.488 372.513 333.517 372.262 343.069 367.696C357.164 360.96 368.651 355.79 369.524 355.79C371.243 355.79 375.35 350.418 376.469 346.702C378.574 339.716 377.54 323.412 373.451 299.111C371.263 286.106 368.766 273.189 367.902 270.409C365.492 262.647 365.114 260.352 366.143 259.717C367.394 258.945 382.931 269.508 413.273 291.754C443.585 313.979 444.823 315.081 441.662 317.032C439.935 318.097 440.333 322.087 442.167 322.087C443.06 322.087 444.102 321.582 444.484 320.964C445.751 318.913 450.882 319.801 454.469 322.691C456.415 324.259 460.351 327.419 463.216 329.713C466.081 332.006 469.571 334.819 470.973 335.963C472.375 337.105 481.483 343.93 491.214 351.129C512.702 367.023 512.867 367.15 522.469 375.054C526.708 378.542 532.37 382.531 535.05 383.917C539.423 386.177 539.749 386.614 538.207 388.153C536.688 389.672 534.631 389.7 520.373 388.399C501.158 386.647 473.351 387.497 402.919 391.988C368.129 394.207 302.967 393.877 283.83 391.384C234.552 384.964 188.028 371.859 146.53 352.71C109.93 335.82 69.5857 303.895 51.5334 277.537C39.8726 260.513 33.3408 236.645 35.7616 219.906C38.0754 203.905 44.6916 192.964 53.3744 190.782C58.9948 189.37 79.0765 189.06 80.3997 190.364C80.8689 190.827 82.095 191.258 83.1223 191.321C90.212 191.756 90.5692 191.838 89.1862 192.714C88.1409 193.376 88.5158 193.975 90.5569 194.902C92.3163 195.7 93.6162 195.773 94.0342 195.096C94.4016 194.502 93.7858 193.975 92.665 193.927C91.5443 193.878 91.224 193.595 91.9522 193.299C94.2485 192.364 109.884 199.555 119.608 206.016C139.672 219.349 161.385 239.129 171.619 253.399C178.398 262.853 173.856 259.535 164.036 247.86C155.54 237.76 149.24 231.664 151.643 235.867C152.192 236.827 155.434 240.579 158.846 244.205C165.697 251.485 166.197 252.135 175.667 266.11C187.128 283.018 199.445 310.91 204.357 331.075C205.636 336.327 207.166 341.256 207.757 342.028C210.214 345.239 213.662 343.013 227.772 329.109L242.309 314.785L242.296 309.335C242.281 302.404 233.717 276.223 226.305 260.447C214.905 236.185 196.967 213.49 173.975 194.243C154.375 177.837 137.191 168.295 119.674 164.093C109.749 161.711 92.8716 161.741 82.6979 164.158C72.3779 166.61 56.2173 174.615 47.6194 181.533C43.8464 184.569 37.204 189.392 32.8585 192.251C17.3715 202.438 5.77927 217.82 2.11832 233.041C1.41098 235.984 0.870858 243.699 0.917924 250.187C1.03335 266.05 3.88205 276.547 11.3862 288.765C15.8055 295.96 16.9812 298.797 16.4394 300.961C15.8629 303.267 17.0307 305.392 22.8682 312.649C44.4443 339.475 78.101 365.469 115.063 383.851C145.203 398.841 194.58 414.875 227.257 420.281C259.723 425.653 300.55 427.239 352.285 425.135C371.36 424.359 379.164 423.729 399.585 421.312C402.681 420.945 406.61 420.642 408.313 420.636C410.017 420.632 411.409 420.229 411.409 419.743C411.408 419.258 412.802 419.251 414.506 419.728C416.266 420.223 420.523 420.002 424.36 419.219C428.083 418.46 431.903 418.251 432.868 418.755C433.832 419.258 435.193 419.315 435.894 418.882C436.597 418.45 438.978 418.18 441.188 418.284C443.398 418.387 445.459 418.063 445.768 417.562C446.077 417.062 447.848 416.892 449.705 417.184C451.85 417.521 453.078 417.23 453.077 416.386C453.075 415.369 453.449 415.366 454.666 416.373C455.76 417.277 458.487 417.431 463.396 416.866C485.439 414.328 540.936 415.684 557.265 419.159C573.348 422.582 587.63 428.855 598.769 437.39L605.337 442.423L612.582 440.016C616.751 438.632 620.316 436.697 620.978 435.459C621.841 433.847 623.354 433.307 627.02 433.307C629.977 433.307 632.461 432.646 633.3 431.635C634.065 430.714 635.118 430.226 635.644 430.549C636.168 430.872 637.503 430.645 638.612 430.043C639.72 429.442 642.02 428.656 643.724 428.298C645.427 427.941 646.819 427.064 646.818 426.353C646.814 423.374 627.59 407.817 617.712 402.797C615.472 401.659 614.002 400.728 614.444 400.728C615.685 400.728 608.357 394.522 589.994 380.024C580.759 372.733 569.594 363.288 565.183 359.036C560.771 354.784 556.86 351.302 556.493 351.3C556.124 351.299 554.349 350.008 552.546 348.433L549.269 345.569L555.138 347.836C567.179 352.487 642.554 390.873 669.877 406.268C676.697 410.112 687.984 416.059 694.958 419.486L707.639 425.715L713.25 419.837C716.345 416.595 719.526 414.215 720.345 414.528C721.161 414.84 722.717 418.266 723.803 422.141C726 429.982 729.433 435.554 732.064 435.554C733.016 435.554 736.045 434.038 738.796 432.184C741.547 430.33 744.226 428.814 744.747 428.814C745.27 428.814 745.959 428.127 746.281 427.288C746.603 426.449 748.377 425.461 750.222 425.093C753.743 424.391 767.178 416.225 768.667 413.884C769.937 411.886 769.725 395.208 768.279 383.441C767.586 377.811 765.25 363.345 763.085 351.296C754.19 301.782 754.343 303.091 754.253 275.464C754.178 252.581 754.446 248.533 756.59 240.076C757.921 234.824 759.748 228.778 760.65 226.64L762.288 222.753L763.005 230.572C765.013 252.458 767.652 264.406 773.476 277.975L777.446 287.226L775.11 293.989C773.353 299.076 772.785 303.464 772.818 311.7C772.87 324.468 774.009 330.175 778.207 338.7C781.317 345.015 795.683 361.438 798.038 361.37C799.746 361.321 804.397 357.415 804.395 356.032C804.394 355.435 805.786 354.651 807.49 354.289C809.193 353.926 812.328 352.474 814.458 351.059C816.587 349.645 820.131 347.474 822.335 346.235C824.674 344.92 826.485 342.959 826.689 341.519C827.113 338.512 824.927 334.133 823.454 335.041C822.866 335.404 822.384 334.94 822.382 334.01C822.381 333.08 820.653 329.385 818.544 325.799C812.914 316.231 809.024 299.922 811.08 294.506C813.215 288.884 814.59 291.024 820.86 309.729C834.955 351.781 864.194 390.656 900.222 415.242C918.667 427.829 932.475 433.307 945.756 433.307C955.832 433.307 957.865 432.614 969.506 425.206C993.852 409.711 993.698 409.829 993.693 406.841C993.691 405.271 994.511 402.395 995.516 400.45C998.041 395.568 997.122 379.58 993.914 372.59C991.187 366.647 986.41 361.407 983.719 361.407C982.658 361.407 979.261 363.217 976.169 365.428C973.077 367.639 967.133 371.749 962.962 374.558C958.79 377.369 954.045 380.901 952.417 382.409L949.456 385.149L952.335 388.164C953.918 389.821 956.265 393.849 957.553 397.112C959.601 402.303 959.678 403.13 958.168 403.707C953.046 405.669 926.333 386.599 906.899 367.108C895.819 355.997 882.829 338.525 872.842 321.305C865.822 309.2 864.448 305.236 867.275 305.236C874.227 305.236 973.566 333.843 977.557 336.994C978.343 337.615 981.058 342.477 983.592 347.799C986.124 353.121 989.319 358.992 990.69 360.846C992.062 362.699 996.18 369.253 999.844 375.411C1012.35 396.429 1035.59 422.473 1050.65 432.334C1068.13 443.782 1085.81 450.159 1100.06 450.159C1112.3 450.159 1126.04 445.249 1136.22 437.239C1138.69 435.292 1146.55 429.613 1153.67 424.619C1171.47 412.149 1177.53 405.874 1181.28 396.047C1182.93 391.731 1184.88 387.965 1185.63 387.681C1188.79 386.47 1229.69 404.051 1268.8 423.431C1283.52 430.722 1299.5 438.244 1304.31 440.146C1309.12 442.048 1318.03 446.103 1324.1 449.158L1335.15 454.711L1340.16 452.498C1342.99 451.246 1345.17 449.526 1345.17 448.537C1345.17 447.575 1346 446.789 1347.03 446.789C1350.12 446.789 1369.54 436.764 1374.17 432.77C1375.36 431.747 1372.19 428.282 1367.81 425.808C1362.22 422.657 1340.53 408.928 1324.82 398.601C1294.99 378.995 1264.73 352.74 1245.71 329.951C1229.42 310.446 1219.93 290.596 1215.95 267.716C1213.81 255.391 1212.45 223.291 1213.98 221.092C1214.88 219.795 1217.59 220.459 1229.55 224.91C1249.82 232.454 1305.18 253.623 1324.04 261.047C1332.72 264.463 1347.18 270.066 1356.16 273.502C1365.15 276.937 1378.34 281.983 1385.46 284.714C1403.86 291.762 1414.7 295.089 1419.35 295.108C1423.31 295.125 1431.91 289.926 1437.96 283.849C1439.26 282.539 1442.63 280.369 1445.43 279.028C1448.24 277.685 1452.59 274.861 1455.09 272.75C1459.45 269.077 1459.58 268.787 1458.08 265.913C1457.22 264.263 1454.59 261.462 1452.23 259.688C1442.06 252.053 1408.22 223.501 1392.11 208.967C1344.69 166.185 1305.46 119.097 1287.46 83.3567C1281.61 71.7247 1273.5 49.2953 1273.64 45.0767C1273.69 43.2691 1273.38 39.6416 1272.95 37.015C1271.97 31.1798 1269.55 30.7439 1263.55 35.3298C1261.33 37.0284 1256.72 40.228 1253.32 42.4378C1249.91 44.6487 1246.45 47.2776 1245.63 48.2797C1244.81 49.2829 1241.93 51.168 1239.24 52.4701C1233.68 55.1551 1232.7 57.6255 1232.86 68.4892C1233.13 85.7879 1248.04 118.366 1268.45 146.269C1273.34 152.951 1288.72 172.031 1290.64 173.793C1290.97 174.102 1295.29 178.905 1300.23 184.466C1305.17 190.027 1314.78 200.257 1321.59 207.2C1328.39 214.143 1333.61 220.171 1333.19 220.596C1332.76 221.022 1328.99 219.937 1324.81 218.188C1320.64 216.439 1314.48 214.078 1311.14 212.942C1307.8 211.806 1299.35 208.596 1292.36 205.809C1285.37 203.021 1266.29 195.985 1249.97 190.172C1215.78 177.994 1218.77 180.807 1220.72 162.641C1222.01 150.632 1221.14 145.122 1217.41 141.765C1214.89 139.494 1215.95 139.142 1201.67 146.989C1197.02 149.538 1190.87 153.293 1187.98 155.333C1174.71 164.721 1172.15 165.081 1155.51 159.92C1132.12 152.671 1084.46 141.209 1045.65 133.508C1020.45 128.507 1020.07 128.441 1015.59 128.419C1013.31 128.408 1011.64 128.076 1011.88 127.682C1012.13 127.289 1006.14 125.892 998.569 124.58C973.912 120.304 970.292 119.855 969.213 120.933C968.578 121.567 967.544 121.344 966.555 120.358C965.664 119.471 963.239 118.745 961.165 118.745C959.093 118.745 956.511 118.407 955.429 117.992C954.087 117.479 953.721 117.658 954.278 118.554C954.727 119.278 954.587 119.868 953.967 119.868C953.348 119.868 952.492 119.307 952.067 118.621C951.621 117.904 949.734 117.626 947.627 117.968C945.611 118.293 943.521 118.132 942.982 117.607C942.444 117.082 938.583 116.493 934.403 116.295C930.222 116.098 926.8 115.611 926.798 115.213C926.796 114.814 925.654 114.493 924.261 114.497C922.867 114.502 920.506 114.115 919.015 113.64C917.444 113.138 916.572 113.203 916.94 113.793C918.101 115.652 898.282 114.265 896.136 112.337C894.719 111.065 892.577 110.73 888.182 111.094C882.73 111.545 879.483 110.437 879.48 108.124C879.479 107.791 886.693 101.788 895.51 94.7832C927.556 69.3239 935.224 56.0303 927.371 39.5427C921.156 26.4973 903.846 16.3808 866.66 4.06456C850.758 -1.20324 848.532 -1.19987 839.9 4.10388ZM894.901 49.7233C894.525 50.0996 893.608 49.2267 892.863 47.7842C891.57 45.2756 891.6 45.2453 893.549 47.0989C894.67 48.1662 895.279 49.3469 894.901 49.7233ZM888.429 53.0509C890.503 55.5393 889.325 55.8258 886.999 53.398C885.914 52.2656 885.47 51.3388 886.014 51.3388C886.557 51.3388 887.644 52.1095 888.429 53.0509ZM388.892 56.956C388.472 58.285 387.873 59.1197 387.562 58.8108C387.252 58.5018 387.344 57.1616 387.764 55.8325C388.184 54.5035 388.783 53.6688 389.094 53.9777C389.404 54.2867 389.312 55.6269 388.892 56.956ZM405.083 62.4777C405.184 68.9004 406.275 73.0537 410.198 81.9524C413.404 89.2211 410.954 86.5327 407.302 78.7731C403.652 71.0203 402.207 63.5517 403.42 58.7085C404.532 54.2563 404.971 55.2483 405.083 62.4777ZM411.221 67.0669C411.877 72.0932 411.872 72.1033 410.299 68.7521C408.577 65.0829 407.951 57.3514 409.618 60.3263C410.136 61.2531 410.858 64.2864 411.221 67.0669ZM266.286 74.3423C279.979 79.327 324.624 105.649 356.336 127.431C358.817 129.136 362.815 131.678 365.221 133.081C367.627 134.484 371.94 137.55 374.806 139.893C377.67 142.236 384.327 147.111 389.598 150.727C399.571 157.568 406.631 163.065 415.95 171.242C418.969 173.892 423.135 176.863 425.205 177.841C432.161 181.132 472.337 221.99 471.72 225.146C471.475 226.396 468.545 227.504 461.802 228.895C450.92 231.138 442.986 234.441 430.942 241.74C426.335 244.533 421.804 246.817 420.874 246.817C419.943 246.817 411.916 241.383 403.034 234.74C394.152 228.097 383.335 220.151 378.995 217.081C367.113 208.672 337.124 185.461 328.819 178.247C315.931 167.049 304.886 158.065 304.009 158.065C302.268 158.065 295.004 161.497 295.005 162.319C295.006 162.788 293.272 164.104 291.153 165.243C288.766 166.526 287.528 167.905 287.9 168.868C288.231 169.723 287.88 170.423 287.123 170.423C286.365 170.423 287.621 172.49 289.912 175.017C292.205 177.543 293.823 179.868 293.508 180.182C293.193 180.497 290.545 178.935 287.622 176.712C281.281 171.889 279.058 171.72 273.405 175.631C267.433 179.763 267.635 183.115 274.247 189.579C280.994 196.175 306.134 232.882 308.086 238.988C308.496 240.269 310.511 244.274 312.565 247.889C314.618 251.503 316.93 256.404 317.701 258.783C318.473 261.161 319.456 263.612 319.883 264.23C320.311 264.848 321.321 267.628 322.128 270.409C322.934 273.189 324.05 276.476 324.609 277.711C326.533 281.966 331.25 306.931 331.268 312.956C331.291 320.474 330.42 319.93 321.852 307.086C304.433 280.968 300.139 272.563 281.882 228.842C273.321 208.34 270.448 201.258 267.528 193.454C267.065 192.218 266.283 190.196 265.789 188.96C263.545 183.348 257.841 164.653 257.838 162.899C257.836 161.827 257.091 158.91 256.18 156.417C255.271 153.925 252.861 141.775 250.825 129.418C247.787 110.973 247.113 103.764 247.061 89.1671C247.004 73.1312 247.203 71.2349 249.082 69.8609C250.838 68.5768 251.725 68.579 254.714 69.8777C256.666 70.7259 261.873 72.7346 266.286 74.3423ZM315.154 80.5481C316.084 81.1469 316.339 81.6367 315.719 81.6367C315.1 81.6367 313.832 81.1469 312.902 80.5481C311.972 79.9494 311.717 79.4595 312.337 79.4595C312.956 79.4595 314.224 79.9494 315.154 80.5481ZM335.535 92.5015C336.514 93.3418 337.697 94.0294 338.163 94.0294C339.098 94.0294 374.795 117.249 376.597 119.029C378.659 121.067 372.232 117.351 359.688 109.253C335.601 93.7036 332.561 91.7892 325.584 87.7774C321.709 85.5486 318.538 83.4725 318.537 83.1635C318.536 82.4389 333.193 90.4906 335.535 92.5015ZM573.8 88.4942C579.635 91.8207 581.465 94.0294 578.388 94.0294C577.579 94.0294 575.198 92.7655 573.097 91.2208C570.995 89.6761 568.74 88.3965 568.087 88.3762C567.433 88.3571 565.912 87.5988 564.709 86.6911C560.377 83.4264 567.331 84.806 573.8 88.4942ZM537.748 97.4682C546.642 102.539 546.144 103.345 536.529 99.441C531.866 97.548 528.051 95.5561 528.05 95.0146C528.047 93.1171 531.769 94.0586 537.748 97.4682ZM227.256 120.43C227.961 129.081 228.855 138.433 229.241 141.214C229.628 143.994 229.627 145.977 229.241 145.621C228.361 144.806 225.092 116.695 224.486 104.702C223.771 90.6029 225.726 101.701 227.256 120.43ZM1297.77 107.007C1298.16 108.007 1297.97 108.458 1297.33 108.064C1296.72 107.687 1296.21 106.903 1296.21 106.321C1296.21 104.705 1297.02 105.062 1297.77 107.007ZM1307.28 122.706C1306.94 123.052 1306.31 122.429 1305.88 121.321C1305.27 119.72 1305.4 119.591 1306.51 120.692C1307.28 121.455 1307.63 122.361 1307.28 122.706ZM1316.6 133.35C1335.1 156.208 1364.78 188.11 1382.84 204.56C1388.87 210.051 1405.89 224.585 1420.66 236.859C1447.88 259.472 1454.17 265.803 1434.85 251.132C1397.86 223.043 1362.47 190.265 1336.15 159.707C1323.81 145.395 1309.76 127.4 1309.76 125.919C1309.76 124.913 1309.83 124.989 1316.6 133.35ZM231.54 154.976C231.229 155.749 230.972 155.116 230.97 153.572C230.968 152.027 231.222 151.395 231.536 152.167C231.85 152.94 231.852 154.204 231.54 154.976ZM232.71 161.133C232.426 162.227 232.173 161.604 232.147 159.75C232.122 157.897 232.354 157.003 232.664 157.763C232.973 158.524 232.995 160.04 232.71 161.133ZM1150.7 160.991C1150.32 161.364 1149.35 161.404 1148.54 161.079C1147.64 160.721 1147.91 160.455 1149.22 160.401C1150.41 160.353 1151.07 160.618 1150.7 160.991ZM233.833 166.141C233.475 167.036 233.208 166.77 233.152 165.461C233.102 164.277 233.366 163.614 233.741 163.987C234.115 164.36 234.157 165.329 233.833 166.141ZM1162.83 164.794C1163.22 165.429 1162.77 165.618 1161.77 165.235C1159.82 164.488 1159.46 163.682 1161.08 163.682C1161.66 163.682 1162.45 164.182 1162.83 164.794ZM237.207 178.568C236.897 179.341 236.64 178.708 236.638 177.164C236.635 175.619 236.89 174.988 237.203 175.759C237.517 176.532 237.519 177.796 237.207 178.568ZM111.331 182.138C134.82 190.22 160.409 209.816 181.442 235.828C191.83 248.676 195.384 254.828 186.817 245.132C151.522 205.187 122.453 185.184 91.1684 179.318C86.9739 178.532 87.5561 178.446 94.5466 178.819C99.5951 179.088 106.349 180.424 111.331 182.138ZM238.364 182.992C238.006 183.887 237.739 183.621 237.683 182.312C237.633 181.128 237.897 180.466 238.272 180.838C238.646 181.211 238.688 182.181 238.364 182.992ZM853.694 186.514C859.899 192.1 874.183 208.868 884.966 223.225C891.231 231.566 901.865 244.902 908.595 252.861C915.326 260.819 922.103 268.993 923.655 271.025C930.97 280.604 938.629 289.507 939.554 289.507C940.117 289.507 940.578 290.069 940.58 290.756C940.582 292.425 938.385 291.979 898.33 282.183C879.739 277.636 862.598 273.57 860.239 273.149C851.82 271.644 849.363 263.067 848.459 232.035C847.819 210.094 848.737 183.872 850.141 183.94C850.545 183.959 852.143 185.118 853.694 186.514ZM1238.57 188.362C1241.18 189.033 1243.58 190.017 1243.91 190.548C1244.24 191.08 1246.41 191.889 1248.75 192.347C1251.08 192.805 1252.42 193.388 1251.72 193.642C1251.03 193.897 1248.24 193.302 1245.53 192.319C1242.81 191.337 1238.18 189.78 1235.24 188.861C1232.29 187.941 1229.88 186.921 1229.88 186.594C1229.88 186.267 1230.77 186.257 1231.85 186.57C1232.94 186.884 1235.96 187.69 1238.57 188.362ZM247.114 206.935C247.957 209.406 250.554 215.978 252.885 221.539C256.892 231.097 260.057 239.018 265.776 253.808C269.167 262.58 286.291 296.632 290.79 303.55C292.798 306.64 295.749 311.19 297.348 313.661C302.266 321.265 310.034 331.197 318.873 341.186C327.719 351.181 326.799 351.582 317.442 341.811C297.109 320.578 275.121 282.63 256.87 237.268C249.833 219.779 240.97 194.368 241.066 191.965C241.136 190.251 242.999 194.862 247.114 206.935ZM1005.26 199.775C1015.9 206.475 1034.28 222.46 1058 245.635C1073.95 261.213 1086.67 275.586 1085.52 276.735C1085.16 277.089 1082.43 276.592 1079.45 275.631C1067.17 271.674 1026.9 265.915 1011.51 265.915C1004.95 265.915 1001.27 265.443 1000.53 264.511C999.497 263.19 997.706 251.364 996.239 236.144C995.237 225.755 996.825 196.262 998.388 196.262C999.103 196.262 1002.2 197.843 1005.26 199.775ZM1278.9 203.003C1280.32 203.612 1280.53 203.968 1279.47 203.968C1278.54 203.968 1276.76 203.534 1275.52 203.003C1274.1 202.394 1273.9 202.038 1274.96 202.038C1275.89 202.038 1277.66 202.471 1278.9 203.003ZM110.927 204.142C111.893 205.699 120.502 210.003 120.489 208.923C120.48 208.077 112.267 203.003 110.907 203.003C110.529 203.003 110.537 203.515 110.927 204.142ZM1289.61 207.497C1291.67 208.823 1289.89 208.823 1286.79 207.497C1285.31 206.86 1285.12 206.51 1286.23 206.47C1287.16 206.435 1288.68 206.898 1289.61 207.497ZM1310.67 215.434C1317.37 217.946 1324.48 220.492 1326.48 221.092C1328.47 221.693 1330.45 222.757 1330.89 223.457C1331.43 224.331 1331 224.464 1329.52 223.88C1328.34 223.412 1322.8 221.338 1317.22 219.27C1302.16 213.684 1295.65 210.978 1297.14 210.92C1297.88 210.89 1303.96 212.922 1310.67 215.434ZM129.051 216.588C130.226 217.882 132.07 219.409 133.147 219.985C136.169 221.596 134.443 218.138 131.153 215.99C127.416 213.55 126.521 213.803 129.051 216.588ZM636.351 216.203C636.346 216.667 627.857 217.09 617.486 217.142C604.337 217.21 601.187 217.018 607.077 216.505C619.644 215.415 636.361 215.241 636.351 216.203ZM137.413 222.526C137.414 222.758 138.186 223.589 139.131 224.369C140.567 225.557 140.732 225.487 140.137 223.945C139.528 222.371 137.411 221.266 137.413 222.526ZM362.052 230.518C366.12 233.294 377.188 241.533 386.648 248.829C396.108 256.123 409.649 266.042 416.741 270.868C432.835 281.822 449.394 294.136 452.232 297.259C455.771 301.156 453.604 301.027 448.285 297.024C445.552 294.967 439.764 290.818 435.423 287.804C431.082 284.791 420.173 277.224 411.182 270.989C382.853 251.344 351.421 227.671 351.418 225.978C351.416 224.328 355.591 226.111 362.052 230.518ZM143.052 227.326C143.053 227.944 144.323 229.637 145.874 231.089C147.425 232.54 148.693 233.222 148.692 232.604C148.691 231.986 147.421 230.293 145.87 228.842C144.319 227.39 143.051 226.708 143.052 227.326ZM331.714 240.901C340.307 258.46 347.756 283.769 350.363 304.26C351.762 315.251 351.764 323.482 350.366 314.223C345.586 282.559 340.271 263.866 330.077 242.862C326.33 235.142 323.264 228.515 323.264 228.134C323.26 225.705 327.166 231.605 331.714 240.901ZM674.195 255.923C676.866 263.582 682.632 279.517 687.008 291.335C696.07 315.807 705.18 345.679 703.582 345.679C702.452 345.679 694.642 332.713 672.791 294.563C660.758 273.555 649.852 255.238 648.557 253.861C646.817 252.01 645.437 251.535 643.279 252.042C640.163 252.774 635.296 256.631 635.299 258.366C635.301 259.48 631.136 264.978 627.424 268.763C626.19 270.021 625.182 271.664 625.183 272.414C625.185 273.165 624.685 273.779 624.075 273.779C623.465 273.779 621.609 275.827 619.953 278.33L616.94 282.881L618.81 288.722C619.838 291.934 623.29 298.86 626.482 304.112C642.513 330.494 649.312 342.893 648.722 344.665C648.529 345.246 636.455 339.94 621.89 332.875C592.69 318.712 562.782 306.359 557.69 306.359C555.884 306.359 550.954 305.131 546.735 303.629C530.35 297.799 519.19 295.143 501.445 292.846C492.879 291.739 490.053 290.438 490.049 287.602C490.048 286.706 494.123 281.586 499.104 276.225C504.085 270.864 510.552 263.89 513.475 260.727C519.607 254.092 525.931 250.534 534.245 249.039C540.48 247.917 574.684 245.706 595.294 245.092C616.146 244.471 646.551 242.686 647.19 242.046C647.347 241.889 652.394 241.815 658.406 241.88L669.337 242L674.195 255.923ZM467.188 252.717C492.248 252.471 495.627 252.644 495.63 254.18C495.631 255.138 492.216 259.63 488.042 264.163C483.868 268.695 478.4 274.735 475.892 277.586C473.383 280.435 470.489 282.767 469.46 282.767C468.432 282.767 465.001 280.476 461.837 277.676C458.672 274.877 453.962 271.225 451.369 269.56C443.262 264.355 429.176 253.502 429.174 252.462C429.172 250.92 433.981 250.494 436.494 251.813C437.944 252.573 448.906 252.896 467.188 252.717ZM824.173 257.749C823.889 258.842 823.635 258.22 823.61 256.366C823.585 254.512 823.816 253.618 824.126 254.379C824.436 255.139 824.457 256.656 824.173 257.749ZM24.2619 273.779C31.3762 292.571 54.3244 318.857 81.3385 339.157C126.365 372.99 198.444 400.493 262.154 408.149C274.232 409.601 274.304 409.625 264.971 409.128C254.104 408.548 227.682 404.302 212.585 400.711C170.473 390.692 129.441 373.329 93.682 350.395C55.7354 326.058 27.7632 294.18 19.1086 265.406C17.1275 258.822 20.9518 265.034 24.2619 273.779ZM523.292 298.495C523.676 299.113 523.483 299.618 522.863 299.618C522.244 299.618 521.423 299.113 521.039 298.495C520.655 297.877 520.848 297.371 521.468 297.371C522.087 297.371 522.908 297.877 523.292 298.495ZM532.621 300.938C538.06 302.303 544.591 305.216 542.241 305.229C541.507 305.232 539.479 304.669 537.734 303.976C535.989 303.284 532.28 302.065 529.491 301.269C523.083 299.437 525.588 299.172 532.621 300.938ZM497.477 331.886C499.867 333.878 501.587 335.741 501.298 336.03C500.556 336.773 488.036 327.458 487.309 325.623C486.583 323.788 491.085 326.562 497.477 331.886ZM507.023 339.579C507.023 339.888 506.009 339.6 504.769 338.939C503.529 338.277 502.515 337.484 502.514 337.175C502.514 336.866 503.528 337.153 504.768 337.815C506.008 338.477 507.022 339.27 507.023 339.579ZM1233.57 365.62C1235.03 367.011 1235.9 368.148 1235.52 368.148C1234.55 368.148 1226.77 360.749 1226.77 359.827C1226.77 359.412 1227.71 359.977 1228.85 361.083C1230 362.188 1232.12 364.229 1233.57 365.62ZM963.244 381.629C963.245 382.247 963.023 382.753 962.749 382.753C962.476 382.753 961.939 382.247 961.555 381.629C961.171 381.011 961.394 380.506 962.05 380.506C962.705 380.506 963.244 381.011 963.244 381.629ZM997.153 401.383C997.209 402.691 997.476 402.958 997.834 402.062C998.159 401.251 998.117 400.282 997.742 399.909C997.368 399.536 997.103 400.199 997.153 401.383ZM515.85 403.805C512.288 404.027 506.46 404.027 502.897 403.805C499.334 403.582 502.249 403.399 509.373 403.399C516.497 403.399 519.412 403.582 515.85 403.805ZM540.607 404.777C540.233 405.15 539.261 405.19 538.449 404.865C537.549 404.507 537.816 404.241 539.128 404.187C540.315 404.138 540.98 404.404 540.607 404.777ZM835.501 442.944C832.404 443.17 821.255 443.901 810.725 444.568C779.359 446.554 754.082 450.066 733.026 455.363C720.301 458.563 717.351 459.804 705.395 466.973C700.724 469.774 694.967 473.061 692.605 474.279C688.496 476.395 686.489 478.79 687.763 480.057C688.09 480.383 691.572 479.4 695.502 477.873C720.546 468.14 738.396 465.461 791.263 463.504C865.784 460.747 926.431 464.206 974.967 473.985C995.558 478.132 996.107 478.075 1014.06 469.899C1019.94 467.222 1025.65 464.729 1026.75 464.361C1029.76 463.351 1030.41 460.387 1028 458.635C1024.76 456.275 1010.31 452.709 996.013 450.742C988.888 449.761 979.762 448.459 975.735 447.849C955.957 444.848 928.419 443.343 886.185 442.951C861.406 442.721 838.598 442.717 835.501 442.944Z" fill="#313131"/>
</svg>
