<svg width="32" height="32" viewBox="0 0 32 32" fill="none" xmlns="http://www.w3.org/2000/svg">
<rect width="32" height="32" rx="16" fill="#3ACB00"/>
<path d="M20.2815 6.63533L18.6462 7.52973L20.2815 8.42412L21.1759 10.0595L22.0703 8.42412L23.7056 7.52973L22.0703 6.63533L21.177 5L20.2815 6.63533ZM4.42749 16.5481C4.42749 10.2232 9.55451 5.0962 15.8794 5.0962H17.8652L16.8711 6.81398C16.2081 7.95917 15.8794 9.3208 15.8794 10.8221C15.8792 12.0058 16.1412 13.1749 16.6465 14.2453C17.1518 15.3157 17.8878 16.261 18.8018 17.0131C19.7158 17.7653 20.785 18.3057 21.9327 18.5956C23.0803 18.8854 24.2779 18.9175 25.4394 18.6896L27.3657 18.3151L26.7438 20.1772C25.9825 22.4558 24.5238 24.4373 22.5743 25.8412C20.6247 27.2451 18.283 28.0003 15.8805 28C9.55565 28 4.42749 22.873 4.42749 16.5481ZM25.6147 10.1534L26.6614 12.0658L28.5727 13.1125L26.6602 14.1592L25.6135 16.0717L24.568 14.1592L22.6555 13.1125L24.568 12.0658L25.6147 10.1534Z" fill="black"/>
</svg>

